<svg width="445" height="294" viewBox="0 0 445 294" fill="none" xmlns="http://www.w3.org/2000/svg">
<g clip-path="url(#clip0_77_744)">
<path d="M473.631 189.36C455.96 233.732 422.737 272.592 376.59 289.673C370.588 291.891 364.459 293.773 358.235 295.309C325.311 303.448 289.292 300.617 258.942 285.786C246.061 279.487 234.315 271.163 221.388 264.954C208.46 258.745 193.697 254.681 179.627 257.746C167.511 260.385 157.29 267.947 146.998 274.684C122.737 290.567 93.5652 303.135 64.8366 297.68C51.6173 295.173 38.6001 288.229 32.4609 276.622C18.8917 250.96 44.4828 220.451 39.3 192.071C35.9834 173.908 20.8357 160.306 11.4189 144.276C-4.69697 116.865 -2.79183 80.4371 16.104 54.7454C34.9997 29.0537 69.8832 15.4256 101.866 21.2538C140.863 28.3601 170.354 60.3663 208.277 71.6873C231.994 78.7633 257.745 76.6522 280.396 67.333C316.994 52.2724 367.274 29.1743 408.46 32.9367C430.361 34.9385 451.843 44.3632 466.298 60.4568C484.572 80.7727 490.05 109.616 487.002 136.405C484.91 154.541 480.416 172.339 473.631 189.36Z" fill="url(#paint0_linear_77_744)"/>
<path d="M21.4581 223.519C18.7876 223.463 16.2479 222.387 14.3904 220.526C12.5328 218.665 11.5073 216.168 11.5365 213.578C11.5657 210.989 12.6472 208.515 14.5463 206.693C16.4453 204.872 19.0086 203.85 21.6797 203.85C24.3509 203.85 26.9142 204.872 28.8132 206.693C30.7123 208.515 31.7938 210.989 31.823 213.578C31.8522 216.168 30.8267 218.665 28.9691 220.526C27.1115 222.387 24.5718 223.463 21.9013 223.519H21.4581ZM21.4581 208.375H21.2287C19.7864 208.406 18.4146 208.987 17.4112 209.992C16.4078 210.997 15.8538 212.345 15.8694 213.743C15.885 215.142 16.469 216.478 17.4947 217.462C18.5202 218.446 19.9046 218.998 21.3473 218.998C22.79 218.998 24.1744 218.446 25.2 217.462C26.2256 216.478 26.8096 215.142 26.8252 213.743C26.8408 212.345 26.2868 210.997 25.2834 209.992C24.28 208.987 22.9082 208.406 21.4659 208.375H21.4581Z" fill="#E7F6FF"/>
<path d="M14.2247 240.026C16.6553 239.924 18.5407 237.931 18.4359 235.575C18.331 233.218 16.2756 231.39 13.845 231.491C11.4144 231.593 9.52898 233.586 9.63381 235.942C9.73867 238.299 11.7941 240.127 14.2247 240.026Z" fill="#E7F6FF"/>
<path d="M275.692 64.5055C273.271 64.5089 270.93 63.672 269.09 62.1463C267.251 60.6206 266.036 58.5069 265.665 56.1876C265.294 53.8684 265.791 51.4968 267.067 49.5025C268.343 47.5079 270.313 46.0225 272.621 45.3146C274.929 44.6066 277.422 44.7231 279.649 45.6433C281.876 46.5631 283.689 48.2257 284.761 50.3296C285.834 52.434 286.093 54.8407 285.494 57.1147C284.894 59.3886 283.475 61.3791 281.493 62.7261C279.793 63.8812 277.768 64.5025 275.692 64.5055ZM275.661 49.3619C274.245 49.3604 272.882 49.8893 271.858 50.8378C270.834 51.7863 270.227 53.0813 270.163 54.4531C270.1 55.825 270.584 57.1678 271.517 58.2015C272.449 59.2352 273.757 59.8802 275.167 60.002C276.578 60.1242 277.983 59.7132 279.089 58.8556C280.195 57.9979 280.917 56.7592 281.105 55.3982C281.292 54.0369 280.93 52.6579 280.095 51.5492C279.26 50.4401 278.016 49.6861 276.621 49.4448C276.304 49.3902 275.983 49.3623 275.661 49.3619Z" fill="#E7F6FF"/>
<path d="M255.013 63.9664C257.005 62.6119 257.487 59.9481 256.09 58.0167C254.693 56.0854 251.946 55.6176 249.954 56.9721C247.962 58.3262 247.48 60.99 248.877 62.9214C250.274 64.853 253.021 65.3205 255.013 63.9664Z" fill="#E7F6FF"/>
<path d="M500 115.169C500.004 111.025 498.309 107.048 495.292 104.114C492.271 101.18 488.173 99.5291 483.9 99.5242C483.542 99.5242 483.188 99.5242 482.838 99.5581C482.862 99.2188 482.873 98.8758 482.873 98.5289C482.873 96.3077 482.384 94.1118 481.439 92.0877C480.494 90.0641 479.118 88.2587 477.395 86.7922C475.673 85.3257 473.651 84.2317 471.458 83.5829C469.269 82.9345 466.96 82.7463 464.689 83.031C462.415 83.3156 460.233 84.0669 458.282 85.2341C456.334 86.4016 454.662 87.9582 453.383 89.8009C452.104 91.6433 451.244 93.7291 450.859 95.9194C450.478 98.1097 450.579 100.354 451.163 102.502C449.215 101.132 446.975 100.203 444.607 99.7821C442.24 99.361 439.806 99.459 437.485 100.069C435.16 100.68 433.01 101.786 431.182 103.309C429.359 104.831 427.908 106.73 426.94 108.866C425.972 111.002 425.51 113.322 425.587 115.654C425.665 117.986 426.279 120.272 427.384 122.344C428.492 124.416 430.062 126.222 431.983 127.628C433.904 129.034 436.124 130.006 438.484 130.471C439.448 132.947 441.042 135.146 443.122 136.86C445.198 138.575 447.695 139.75 450.366 140.275C453.041 140.801 455.809 140.659 458.414 139.863C461.015 139.068 463.367 137.644 465.249 135.726C467.174 137.135 469.398 138.107 471.761 138.57C474.125 139.034 476.563 138.979 478.9 138.407C481.24 137.835 483.414 136.763 485.268 135.268C487.123 133.773 488.604 131.895 489.611 129.77C492.663 128.644 495.292 126.644 497.146 124.037C499.005 121.429 499.996 118.337 500 115.169Z" fill="white"/>
<path d="M74.4361 77.585C74.4361 73.4404 72.7383 69.4655 69.7161 66.5344C66.6939 63.6033 62.5948 61.9562 58.3203 61.9551C57.9626 61.9551 57.6088 61.9551 57.2589 61.989C57.2822 61.6497 57.2939 61.3067 57.2939 60.9598C57.2935 58.7383 56.8044 56.5427 55.86 54.5186C54.9152 52.495 53.5365 50.6896 51.8156 49.2231C50.0948 47.7566 48.0715 46.6626 45.8802 46.0138C43.6889 45.3654 41.3802 45.1772 39.108 45.4619C36.8359 45.7465 34.6524 46.4975 32.7032 47.665C30.7539 48.8325 29.0837 50.3891 27.8039 52.2318C26.5241 54.0742 25.664 56.16 25.2811 58.3503C24.8981 60.5406 25.0011 62.7849 25.5831 64.9333C23.6348 63.5633 21.395 62.6337 19.0279 62.2126C16.6607 61.7919 14.2265 61.8899 11.9036 62.5002C9.58077 63.1106 7.42836 64.2174 5.6043 65.7397C3.78021 67.2616 2.33079 69.1605 1.36239 71.2969C0.393997 73.4329 -0.0688019 75.7525 0.00795833 78.0845C0.0847186 80.417 0.69909 82.703 1.80599 84.7749C2.91288 86.8469 4.48424 88.6523 6.40469 90.0588C8.32514 91.465 10.546 92.4365 12.9042 92.902C13.8679 95.3758 15.4633 97.5722 17.5408 99.2852C19.6184 100.999 22.1103 102.173 24.7833 102.698C27.4563 103.222 30.223 103.081 32.8244 102.288C35.4258 101.493 37.777 100.072 39.6578 98.1573C41.582 99.5653 43.8071 100.537 46.1702 101.001C48.533 101.465 50.9727 101.409 53.3106 100.838C55.6481 100.266 57.8238 99.1936 59.6772 97.6988C61.5306 96.2041 63.0147 94.3252 64.0201 92.2008C67.0808 91.0774 69.7169 89.0775 71.5773 86.4669C73.4377 83.8562 74.435 80.7585 74.4361 77.585Z" fill="white"/>
<g opacity="0.04">
<path opacity="0.04" d="M356.998 209.553H242.791L130.241 244.1V244.862H15.2058V281.773H130.241V281.011L242.791 246.464H356.998V246.211L471.205 211.159V174.248L356.998 209.3V209.553Z" fill="#A8A8A8"/>
</g>
<path d="M158.344 65.1968H60.1594V282.99H158.344V65.1968Z" fill="white"/>
<path d="M447.301 221.088L349.121 251.221V33.4271L447.301 3.29443V221.088Z" fill="#E5E5E5"/>
<path d="M349.829 33.4282H251.644V251.222H349.829V33.4282Z" fill="white"/>
<path d="M252.352 251.222L154.168 281.358V63.5647L252.352 33.4282V251.222Z" fill="#E5E5E5"/>
<path d="M147.104 146.433H125.206V265.603H147.104V146.433Z" fill="#E8EDF7"/>
<path d="M275.09 120.409H260.828V234.101H307.516L275.09 120.409Z" fill="#C0CEE2"/>
<path d="M280.054 120.409L312.481 234.101H340.645V120.409H280.054Z" fill="#C0CEE2"/>
<path d="M433.371 22.9844L361.127 44.4351V54.659V77.3612V79.3178L433.371 22.9844Z" fill="#C0CEE2"/>
<path d="M361.127 85.8255V87.4541V111.796L437.414 88.9771V54.6599V26.3406L361.127 85.8255Z" fill="#E8837E"/>
<path d="M437.414 175.808V168.788V111.716V101.624V93.9937L361.127 116.809V119.648L437.414 175.808Z" fill="#C0CEE2"/>
<path d="M167.59 229.993V262.867V263.017L184.534 257.683L184.561 257.532L195.156 254.203L195.132 254.347L243.877 238.999V238.894V209.014V198.922V156.024L167.59 229.993Z" fill="#C0CEE2"/>
<path d="M243.721 149.702L243.877 149.853V141.853V131.761V122.547L167.59 145.366V174.658V184.75V223.52L243.721 149.702Z" fill="#C0CEE2"/>
<path d="M407.053 158.991L361.127 125.182V144.526V154.614V172.728L407.053 158.991Z" fill="#E8837E"/>
<path d="M120.265 220.949V146.433H67.2864V236.794L120.265 220.949Z" fill="#E8837E"/>
<path d="M67.2864 241.812V265.603H120.265V225.963L67.2864 241.812Z" fill="#E8EDF7"/>
<path d="M439.533 44.3857H436.003V48.4949H439.533V44.3857Z" fill="white"/>
<path d="M439.533 81.3696H436.003V73.1362H439.533V81.3696ZM439.533 64.9329H436.003V56.7146H439.533V64.9329Z" fill="white"/>
<path d="M435.828 98.4206L433.448 95.891L436.003 93.6291V90.2739H439.533V95.1408L435.828 98.4206Z" fill="white"/>
<path d="M342.057 148.488H333.593V145.065H342.068L342.057 148.488ZM325.813 148.488H317.337V145.065H325.817L325.813 148.488ZM308.861 148.488H300.385V145.065H308.861V148.488ZM351.104 147.734L350.284 144.401L358.476 142.501L359.296 145.834L351.104 147.734ZM367.504 143.934L366.68 140.616L374.88 138.731L375.7 142.064L367.504 143.934ZM383.904 140.134L383.083 136.801L388.177 135.621L389.864 134.113L392.243 136.643L389.883 138.731L383.904 140.134ZM398.468 131.146L396.089 128.617L402.31 123.105L404.689 125.635L398.468 131.146ZM410.91 120.119L408.53 117.59L414.751 112.078L417.131 114.608L410.91 120.119ZM423.352 109.096L420.972 106.567L427.193 101.055L429.572 103.585L423.352 109.096Z" fill="white"/>
<path d="M287.27 151.214L284.14 149.627L286.598 145.065H291.905V148.488H288.736L287.27 151.214Z" fill="white"/>
<path d="M273.985 175.179L270.855 173.596L274.129 167.519L277.259 169.102L273.985 175.179ZM280.533 163.025L277.403 161.442L280.676 155.365L283.806 156.948L280.533 163.025Z" fill="white"/>
<path d="M267.208 187.759L263.619 181.297L266.73 179.672L267.161 180.449L267.581 179.669L270.711 181.252L267.208 187.759Z" fill="white"/>
<path d="M259.519 166.686L256.411 168.309L260.016 174.801L263.125 173.179L259.519 166.686Z" fill="white"/>
<path d="M252.807 161.822L251.469 159.42L248.763 160.17L247.791 156.879L253.231 155.368L255.913 160.201L252.807 161.822Z" fill="white"/>
<path d="M156.489 186.156H154.872V182.733H155.992L162.212 181.003L163.184 184.294L156.489 186.156ZM146.38 186.156H138.604V182.733H146.38V186.156ZM130.136 186.156H122.36V182.733H130.136V186.156ZM114.584 186.156H106.808V182.733H114.584V186.156ZM98.3399 186.156H90.5911V182.733H98.3671L98.3399 186.156ZM170.984 181.791L170.008 178.5L177.784 176.336L178.76 179.627L170.984 181.791ZM186.536 177.467L185.564 174.176L193.34 172.015L194.312 175.306L186.536 177.467ZM202.088 173.143L201.116 169.851L208.892 167.691L209.864 170.982L202.088 173.143ZM217.64 168.819L216.668 165.527L224.444 163.367L225.416 166.658L217.64 168.819ZM233.192 164.494L232.22 161.203L239.996 159.043L240.968 162.334L233.192 164.494Z" fill="white"/>
<path d="M79.2962 188.211H75.762V182.047H82.1189V185.474H79.2962V188.211Z" fill="white"/>
<path d="M79.9998 198.489H76.4695V208.762H79.9998V198.489Z" fill="white"/>
<path d="M79.9998 219.716H76.4695V223.825H79.9998V219.716Z" fill="white"/>
<path d="M147.103 80.001H96.2478V141.642H147.103V80.001Z" fill="#E8EDF7"/>
<path d="M91.3027 80.001H67.2864V141.642H91.3027V80.001Z" fill="#E8837E"/>
<path d="M411.898 162.557L378.021 172.69L401.027 220.319L437.415 208.862V208.761V181.342L411.898 162.557Z" fill="#E8837E"/>
<path d="M396.287 221.813L373.25 174.12L361.127 177.746V232.73V232.885L378.071 227.55L378.098 227.4L388.693 224.071L388.67 224.21L396.287 221.813Z" fill="#C0CEE2"/>
<path d="M60.3187 283.303L55.6531 283.288L55.7697 250.4V61.8569H153.806L251.263 31.9427L264.211 31.7203H348.759L449.634 0.758301V51.3276H444.969V6.93713L349.483 36.2442H264.234L252.025 36.4553L154.529 66.3807H60.4353V250.407L60.3187 283.303Z" fill="#426572"/>
<path d="M156.423 284.174H58.1028V279.65H156.151L156.645 279.594L251.979 249.514H349.677L351.026 249.344L444.969 219.995V106.741H449.634V223.29L352.053 253.777L349.977 254.038H252.722L157.644 284.034L156.423 284.174Z" fill="#426572"/>
<path d="M449.634 88.271H444.969V96.7532H449.634V88.271Z" fill="#426572"/>
<path d="M449.634 59.9336H444.969V82.8017H449.634V59.9336Z" fill="#426572"/>
<path opacity="0.2" d="M259.72 8.88141C201.275 8.76077 164.852 44.4199 164.744 100.576C164.705 117.918 174.121 145.008 190.373 177.715C197.714 191.517 206.625 206.849 216.077 222.2C227.617 241.11 240.206 260.027 252.811 277.406L259.11 285.594C261.221 283.038 263.332 280.494 265.443 277.432C278.122 259.593 290.797 241.242 302.422 222.392C311.94 207.094 320.397 191.8 327.796 178.024C344.72 145.389 354.254 118.347 354.292 100.995C354.413 46.3463 316.586 9.00204 259.72 8.88141ZM259.39 156.924C224.639 156.853 196.268 129.231 196.345 95.532C196.423 61.833 224.915 34.3319 259.666 34.4035C294.417 34.4751 322.788 62.1044 322.706 95.7959C322.624 129.487 294.145 157 259.394 156.928L259.39 156.924Z" fill="#8DA3B2"/>
<path d="M308.2 88.3283C308.126 122.035 279.631 149.536 244.88 149.461C214.783 149.397 189.468 128.67 183.286 101.206C182.651 97.6836 182.337 94.1135 182.349 90.5374C182.415 56.8498 210.91 29.3373 245.657 29.4052C275.708 29.4692 300.992 50.1394 307.232 77.52C307.229 77.5351 307.229 77.5506 307.232 77.5653C307.883 81.118 308.207 84.7201 308.2 88.3283Z" fill="white"/>
<path d="M245.84 2.18734C187.403 2.06293 150.988 37.7261 150.855 93.871C150.816 111.212 160.233 138.303 176.485 171.01C183.826 184.812 192.737 200.144 202.189 215.495C213.729 234.405 226.318 253.322 238.923 270.701L245.222 278.889C247.333 276.333 249.444 273.789 251.555 270.727C264.234 252.888 276.909 234.537 288.534 215.687C298.052 200.389 306.508 185.095 313.907 171.319C330.832 138.684 340.365 111.642 340.404 94.2894C340.529 39.6525 302.706 2.3042 245.84 2.18734ZM245.509 150.231C210.762 150.159 182.391 122.522 182.465 88.8382C182.539 55.1543 211.034 27.634 245.781 27.7056C280.529 27.7773 308.904 55.4182 308.83 89.1021C308.756 122.786 280.26 150.306 245.509 150.231Z" fill="#E8837E"/>
<path d="M310.265 179.447C303.764 191.394 296.517 204.253 288.515 217.112C276.898 235.961 264.219 254.324 251.54 272.152C249.429 275.213 247.318 277.758 245.202 280.314L238.904 272.126C226.307 254.747 213.71 235.829 202.174 216.923C192.722 201.58 183.811 186.248 176.47 172.439C160.218 139.731 150.809 112.652 150.84 95.2995C150.891 72.126 157.123 52.4473 168.531 37.3262C164.013 48.7302 161.622 61.7212 161.587 76.043C161.548 93.3844 170.965 120.479 187.217 153.182C194.557 166.984 203.468 182.316 212.92 197.667C224.456 216.573 237.049 235.49 249.65 252.869L255.949 261.057C258.064 258.501 260.175 255.957 262.286 252.896C274.961 235.06 287.64 216.705 299.262 197.855C303.107 191.692 306.765 185.52 310.265 179.447Z" fill="#D66765"/>
<path d="M245.132 283.653L236.684 272.672C224.075 255.281 211.334 236.13 199.837 217.288C189.981 201.312 181.065 185.855 174.055 172.683L174.024 172.619C156.8 137.959 148.087 111.619 148.126 94.3299C148.188 66.0031 157.325 42.2076 174.541 25.5146C191.758 8.82152 216.306 0 245.525 0H245.828C274.409 0.0603181 298.814 9.18343 316.408 26.3892C325.095 34.9313 331.838 45.1451 336.201 56.371C340.817 68.0577 343.142 80.9657 343.11 94.7371C343.072 112.18 333.81 139.222 316.322 172.947V172.981C309.736 185.241 300.89 201.376 290.867 217.492C278.449 237.646 265.16 256.699 253.799 272.679C251.668 275.763 249.522 278.372 247.426 280.894L245.132 283.653ZM241.116 269.607L245.28 275.02C246.629 273.35 247.951 271.627 249.285 269.716C260.614 253.777 273.841 234.811 286.186 214.778C296.132 198.79 304.922 182.753 311.458 170.564C328.565 137.578 337.621 111.355 337.659 94.7296C337.718 68.5817 329.028 46.2338 312.535 30.1063C295.992 13.9184 272.916 5.33438 245.817 5.27783H245.525C217.78 5.27783 194.569 13.5716 178.387 29.2467C162.205 44.9219 153.628 67.4394 153.577 94.3413C153.542 110.589 162.306 136.854 178.919 170.297C185.875 183.378 194.728 198.695 204.522 214.593C215.937 233.314 228.593 252.333 241.116 269.607ZM245.634 153.325H245.49C232.454 153.313 219.715 149.549 208.889 142.509C198.062 135.469 189.634 125.471 184.674 113.782C179.714 102.093 178.446 89.2387 181.029 76.8494C183.612 64.4604 189.931 53.0939 199.184 44.1905C205.273 38.2635 212.511 33.5629 220.482 30.359C228.452 27.1551 236.998 25.5112 245.626 25.5221H245.77C258.805 25.5347 271.543 29.2994 282.369 36.3389C293.195 43.3785 301.622 53.3762 306.581 65.0644C311.541 76.7529 312.81 89.6059 310.228 101.994C307.645 114.383 301.328 125.749 292.076 134.653C285.987 140.58 278.749 145.282 270.778 148.486C262.808 151.691 254.262 153.335 245.634 153.325ZM245.634 30.8037C229.717 30.9616 214.507 37.1988 203.303 48.1621C192.1 59.1253 185.806 73.93 185.79 89.3639C185.773 104.798 192.034 119.615 203.213 130.601C214.392 141.588 229.589 147.856 245.506 148.047H245.638C261.554 147.889 276.764 141.652 287.968 130.689C299.172 119.725 305.465 104.921 305.482 89.4868C305.499 74.0533 299.238 59.2354 288.058 48.2492C276.879 37.2629 261.682 30.9943 245.766 30.8037H245.634Z" fill="#426572"/>
<path d="M298.243 33.0775C311.82 45.2956 321.213 61.0725 324.965 78.7118C326.306 85.1915 326.965 91.7861 326.932 98.3943C326.932 101.305 331.598 101.308 331.598 98.3943C331.575 77.1774 324.957 56.6504 311.26 39.9913C308.284 36.3873 305.035 33.0039 301.54 29.8693C299.343 27.8901 296.034 31.0832 298.239 33.0699L298.243 33.0775Z" fill="white"/>
<path d="M273.814 17.2511L274.086 17.3604C273.34 17.0702 274.475 17.5301 274.646 17.6055C275.785 18.1069 276.905 18.646 278.013 19.2039C281.837 21.1598 285.521 23.3639 289.04 25.8012C291.493 27.4863 293.83 23.5657 291.396 21.8956C286.314 18.4047 280.871 15.1098 275.066 12.8894C272.274 11.8187 271.061 16.1918 273.826 17.2511H273.814Z" fill="white"/>
</g>
<defs>
<linearGradient id="paint0_linear_77_744" x1="0.512993" y1="159.853" x2="487.791" y2="159.853" gradientUnits="userSpaceOnUse">
<stop stop-color="#C5E9FA"/>
<stop offset="1" stop-color="#C4F4EA"/>
</linearGradient>
<clipPath id="clip0_77_744">
<rect width="445" height="294" fill="white"/>
</clipPath>
</defs>
</svg>
