<svg width="159" height="63" viewBox="0 0 159 63" fill="none" xmlns="http://www.w3.org/2000/svg">
<path d="M22.1118 50.0744C22.1081 53.948 22.1013 60.8602 15.6326 62.1822C12.4784 62.0789 9.08303 58.4614 10.8775 53.938C16.6689 49.5454 8.30639 32.1572 12.273 37.2309C15.4272 37.3342 22.1179 43.8472 22.1118 50.0744Z" fill="white"/>
<path d="M7.50372 29.3675C7.53464 27.6035 7.3383 26.8592 8.66257 25.6008C9.98683 24.3425 12.2247 23.3063 14.1357 23.225C16.0468 23.1437 17.93 23.7314 19.4081 24.8705C20.8862 26.0095 21.8501 27.6158 22.1067 29.3675C22.3632 31.1192 21.8935 32.8869 20.7916 34.3166C19.6897 35.7463 18.037 36.7323 16.1645 37.0771C14.2921 37.422 12.3382 37.1002 10.6943 36.1762C9.05045 35.2522 8.04195 31.0673 7.50372 29.3675C7.90902 30.6475 7.42467 28.6717 8.66257 29.3675C9.90046 30.0633 13.4255 34.9861 14.8355 34.7265C16.2455 34.4668 17.6878 33.6457 18.5176 32.5691C19.3474 31.4925 19.1203 30.3479 18.9271 29.0288C18.7339 27.7098 18.4976 27.3875 17.3846 26.5298C16.2715 25.672 15.2856 25.6637 13.8466 25.7249C12.4075 25.7862 9.65978 28.4199 8.66257 29.3675C7.66536 30.315 7.527 28.0392 7.50372 29.3675Z" fill="#F5FF84"/>
<path d="M29.0591 47.0337C24.3933 43.4351 21.3406 37.8724 22.6435 36.5742C23.9465 35.2761 33.7849 37.6677 37.5583 40.2764C41.3316 42.8852 43.1305 46.5895 39.967 49.7413C38.6641 51.0395 33.725 50.6324 29.0591 47.0337Z" fill="white"/>
<path d="M12.6089 9.29638C14.1414 14.8491 13.161 21.0651 11.3097 21.3689C9.45825 21.6726 3.01503 14.148 1.58935 9.90019C0.163661 5.65239 1.00489 1.64618 5.5 0.90877C7.35139 0.605052 11.0765 3.74363 12.6089 9.29638Z" fill="white"/>
<path d="M31.9391 17.5116C27.814 21.6741 21.7832 24.1309 20.5433 22.7771C19.3034 21.4233 22.6048 12.2142 25.6276 8.82277C28.6505 5.43136 32.6471 4.0191 35.6576 7.30603C36.8975 8.65981 36.0642 13.349 31.9391 17.5116Z" fill="white"/>
<path d="M36.6291 32.9764C30.643 32.9395 24.6487 30.4018 24.8287 28.6078C25.0087 26.8138 34.2655 22.8205 38.9112 22.6141C43.557 22.4078 47.3654 24.2372 46.9284 28.5929C46.7484 30.3869 42.6152 33.0134 36.6291 32.9764Z" fill="white"/>
<path d="M56.1657 34.7649C55.74 34.0273 55.0838 33.6584 54.197 33.6584C53.3101 33.6584 52.645 34.0273 52.2016 34.7649C51.776 35.5026 51.12 36.6988 51.12 38.3535C51.12 40.0083 51.776 41.2045 52.2016 41.9421C52.645 42.6798 53.3101 43.0486 54.197 43.0486C55.0838 43.0486 55.74 42.6798 56.1657 41.9421C56.6091 41.2045 57.1484 40.0083 57.1484 38.3535C57.1484 36.6988 56.6091 35.5026 56.1657 34.7649ZM59.3316 44.3046C58.1078 45.7201 56.3963 46.4279 54.197 46.4279C51.9977 46.4279 50.2861 45.7201 49.0623 44.3046C47.8385 42.8891 47.4778 40.9054 47.4778 38.3535C47.4778 35.8016 47.8385 33.8179 49.0623 32.4024C50.2861 30.9869 51.9977 30.2792 54.197 30.2792C56.3963 30.2792 58.1078 30.9869 59.3316 32.4024C60.5554 33.8179 60.665 35.8016 60.665 38.3535C60.665 40.9054 60.5554 42.8891 59.3316 44.3046Z" fill="#F5FF84"/>
<path d="M67.786 46.4279C67.4009 46.4279 67.0659 46.2519 66.7813 45.8999V45.8999C66.2454 45.196 66.2979 44.2201 66.1359 43.3503L66.0968 43.1405C65.9088 42.1312 65.8142 41.1067 65.8142 40.08V38.6204V35.751L66.0026 33.0151C66.0026 32.5389 66.5133 31.1591 66.7813 30.8071V30.8071C67.2621 30.2127 68.1724 30.2792 68.9369 30.2792H69.1173C69.5359 30.2792 69.9294 30.4345 70.2978 30.745C70.6662 31.0349 70.9426 31.4179 71.1268 31.894L73.4614 38.7795C73.4706 38.8067 73.4844 38.8322 73.5021 38.8549V38.8549C73.6266 39.0145 73.8781 38.9738 73.9461 38.7832L76.4016 31.894C76.5858 31.4179 76.8538 31.0349 77.2054 30.745C77.5738 30.4345 77.9673 30.2792 78.386 30.2792H79.7926C80.1778 30.2792 80.5043 30.4552 80.7722 30.8071C81.0569 31.1591 81.5132 31.8049 81.5132 32.2811L81.6388 35.3507V38.4202V40.0902C81.6388 41.111 81.5654 42.1303 81.419 43.1405L81.3914 43.3312C81.2635 44.2144 81.3335 45.206 80.7722 45.8999V45.8999C80.5043 46.2519 80.1778 46.4279 79.7926 46.4279H78.6372C78.252 46.4279 77.9171 46.2519 77.6324 45.8999C77.3645 45.548 76.9291 45.1339 76.9291 44.6577L77.1837 38.2583C77.1898 38.1037 76.9687 38.0705 76.9291 38.2201V38.2201L75.7988 41.1174C75.6313 41.6143 75.3634 42.0077 74.995 42.2975C74.6433 42.5874 74.2498 42.7323 73.8144 42.7323H73.6888C73.2534 42.7323 72.8516 42.5874 72.4831 42.2975C72.1315 42.0077 71.8719 41.6143 71.7045 41.1174L70.323 37.0803L70.713 38.2201V38.2201C70.6308 38.0072 70.3139 38.0731 70.3233 38.3011L70.5867 44.6577C70.5867 45.1339 70.1304 45.548 69.8457 45.8999C69.5778 46.2519 69.2512 46.4279 68.8661 46.4279H67.786Z" fill="#F5FF84"/>
<path d="M106.552 45.9111C106.168 45.9111 105.471 45.4767 105.188 45.136C104.904 44.7953 104.497 43.4007 104.497 42.9397V42.9397C104.33 39.2915 104.435 35.6253 104.811 31.9927V31.9927C104.811 31.5317 105.267 31.1309 105.55 30.7902C105.834 30.4495 106.168 30.2792 106.552 30.2792H107.679C108.063 30.2792 108.397 30.4495 108.681 30.7902C108.965 31.1309 109.332 31.5317 109.332 31.9927L109.52 37.1262V42.3338C109.52 42.4941 110.274 42.746 109.646 42.746L110.902 42.5743C111.036 42.5743 111.153 42.3249 111.153 42.1646L111.09 37.1262L111.26 31.7649C111.26 31.3039 111.602 31.1309 111.886 30.7902C112.17 30.4495 112.504 30.2792 112.888 30.2792H113.94C114.324 30.2792 114.649 30.4495 114.916 30.7902C115.2 31.1309 115.737 31.5317 115.737 31.9927V37.1908V42.1646C115.737 42.2917 115.84 42.7044 115.958 42.87C116.004 42.9352 116.09 42.9544 116.164 42.9831V42.9831C116.609 43.154 117.26 43.0968 117.465 42.6661C117.484 42.6258 117.496 42.5939 117.496 42.5743V37.1262L117.721 31.9927C117.721 31.5317 117.863 31.1309 118.147 30.7902C118.431 30.4495 118.765 30.2792 119.149 30.2792H120.275C120.659 30.2792 120.993 30.4495 121.277 30.7902C121.561 31.1309 121.954 31.5317 121.954 31.9927L122.394 37.1908V42.9397C122.394 43.4007 122.238 44.7953 121.954 45.136C121.67 45.4767 120.659 45.9111 120.275 45.9111L120.151 45.9204C115.624 46.2582 111.078 46.2551 106.552 45.9111V45.9111Z" fill="#F5FF84"/>
<path d="M129.63 46.3074C129.23 46.3074 128.883 46.1363 128.587 45.7942C128.31 45.4522 128.171 45.0497 128.171 44.5869L128.154 44.4073C127.789 40.3902 127.795 36.348 128.171 32.332V32.332C128.171 31.8691 128.31 31.4667 128.587 31.1246C128.883 30.7825 129.23 30.1587 129.63 30.1587H130.906C131.306 30.1587 131.644 30.7825 131.922 31.1246C132.217 31.4667 132.365 31.8691 132.365 32.332V36.5276C132.365 36.5336 132.366 36.5386 132.367 36.5428C132.374 36.5614 132.4 36.5526 132.417 36.5426V36.5426C132.434 36.5328 132.448 36.5187 132.458 36.5017L133.948 33.9317L135.518 31.7736C135.974 31.1275 136.751 30.5645 137.516 30.3073C138.048 30.1286 138.618 30.2348 139.158 30.3851V30.3851C139.698 30.5353 140.214 30.7787 140.38 31.3143C140.457 31.5641 140.521 31.8143 140.571 31.9396C140.71 32.2414 140.033 33.6702 139.842 33.9317L138.096 35.9453L136.152 37.8647C136.076 37.9391 135.994 38.0136 135.977 38.1181V38.1181C135.949 38.2887 136.103 38.4282 136.23 38.5452L137.097 39.3419C137.55 39.7589 137.966 40.2154 138.339 40.706L139.842 42.6852C140.033 42.967 140.767 43.9077 140.571 45.7942C140.604 45.2509 140.233 46.3074 139.842 46.3074H138.096C137.124 46.3074 136.334 45.8546 135.726 44.9491L134.775 43.738C134.224 43.0372 133.729 42.2948 133.294 41.5173L132.474 40.053C132.453 40.017 132.432 39.9686 132.391 39.9686V39.9686C132.374 39.9686 132.365 39.9787 132.365 39.9988V44.5869C132.365 45.0497 132.217 45.4522 131.922 45.7942C131.644 46.1363 131.306 46.3074 130.906 46.3074H129.63Z" fill="#F5FF84"/>
<path d="M152.57 38.8909C150.536 38.8909 149.519 39.6386 149.519 41.1338C149.519 41.6721 149.652 42.1007 149.919 42.4197C150.186 42.7188 150.544 42.8683 150.994 42.8683C151.795 42.8683 152.445 42.5693 152.945 41.9712C153.446 41.3531 153.696 40.5357 153.696 39.5189V39.1601C153.696 38.9807 153.621 38.8909 153.471 38.8909H152.57ZM149.769 46.3074C148.618 46.3074 147.668 45.8688 146.917 44.9916C146.184 44.0944 145.817 42.9381 145.817 41.5226C145.817 37.8941 148.068 36.0799 152.57 36.0799H153.471C153.621 36.0799 153.696 36.0001 153.696 35.8406V35.6911C153.696 34.9335 153.529 34.3853 153.196 34.0463C152.879 33.7074 152.337 33.538 151.57 33.538C150.552 33.538 149.335 33.7274 147.918 34.1061C147.568 34.1859 147.251 34.0962 146.967 33.837C146.7 33.5778 146.567 33.2389 146.567 32.8202V32.7604C146.567 32.262 146.692 31.8134 146.942 31.4147C147.209 30.996 147.543 30.7468 147.943 30.6671C149.41 30.3282 150.678 30.1587 151.745 30.1587C153.929 30.1587 155.472 30.6272 156.372 31.5642C157.289 32.5012 158.125 33.9068 158.125 36.0799L157.748 40.4351V44.3037C157.748 44.7623 157.606 45.161 157.323 45.4999C157.039 45.8389 156.756 46.3074 156.372 46.3074H155.424C155.024 46.3074 154.655 45.8488 154.371 45.5298C154.088 45.1909 153.938 44.7822 153.921 44.3037V43.9748C153.921 43.9549 153.913 43.9449 153.896 43.9449V43.9449C153.853 43.9449 153.833 43.9941 153.809 44.0293C152.763 45.548 151.417 46.3074 149.769 46.3074Z" fill="#F5FF84"/>
<path d="M93.5419 39.0114C91.5075 39.0114 90.4903 39.7591 90.4903 41.2543C90.4903 41.7926 90.6237 42.2212 90.8905 42.5402C91.1573 42.8393 91.5158 42.9888 91.966 42.9888C92.7665 42.9888 93.4168 42.6897 93.9171 42.0916C94.4173 41.4736 94.6675 40.6562 94.6675 39.6394V39.2806C94.6675 39.1011 94.5924 39.0114 94.4423 39.0114H93.5419ZM90.7404 46.4279C89.5898 46.4279 88.6393 45.9893 87.8889 45.112C87.1552 44.2149 86.7883 43.0586 86.7883 41.6431C86.7883 38.0146 89.0395 36.2004 93.5419 36.2004H94.4423C94.5924 36.2004 94.6675 36.1206 94.6675 35.9611V35.8116C94.6675 35.054 94.5007 34.5057 94.1672 34.1668C93.8504 33.8279 93.3084 33.6584 92.5413 33.6584C91.5241 33.6584 90.3068 33.8478 88.8894 34.2266C88.5392 34.3064 88.2224 34.2167 87.9389 33.9575C87.6721 33.6983 87.5387 33.3594 87.5387 32.9407V32.8809C87.5387 32.3825 87.6638 31.9339 87.9139 31.5352C88.1807 31.1165 88.5142 30.8673 88.9144 30.7876C90.3819 30.4486 91.6492 30.2792 92.7164 30.2792C94.9009 30.2792 96.4434 30.7477 97.3439 31.6847C98.261 32.6217 99.0964 34.0273 99.0964 36.2004L98.7196 40.5556V44.4242C98.7196 44.8828 98.5778 45.2815 98.2944 45.6204C98.0109 45.9593 97.7274 46.4279 97.3439 46.4279H96.3961C95.9959 46.4279 95.6263 45.9693 95.3428 45.6503C95.0593 45.3114 94.9092 44.9027 94.8926 44.4242V44.0953C94.8926 44.0753 94.8842 44.0654 94.8676 44.0654V44.0654C94.8248 44.0654 94.8046 44.1145 94.7803 44.1498C93.735 45.6685 92.3883 46.4279 90.7404 46.4279Z" fill="#F5FF84"/>
</svg>
