<svg width="34" height="31" viewBox="0 0 34 31" fill="none" xmlns="http://www.w3.org/2000/svg">
<path d="M30.3834 28.0715L20.1147 18.6697L30.3834 28.0715Z" fill="white"/>
<path d="M30.3834 28.0715L20.1147 18.6697" stroke="#666666" stroke-width="5.83333" stroke-linecap="round"/>
<path d="M21.8258 11.6183C21.8258 13.904 20.8341 16.0961 19.0688 17.7124C17.3036 19.3286 14.9094 20.2366 12.4129 20.2366C9.91644 20.2366 7.52224 19.3286 5.75697 17.7124C3.99171 16.0961 3 13.904 3 11.6183C3 9.33259 3.99171 7.14049 5.75697 5.52424C7.52224 3.908 9.91644 3 12.4129 3C14.9094 3 17.3036 3.908 19.0688 5.52424C20.8341 7.14049 21.8258 9.33259 21.8258 11.6183Z" fill="white" stroke="#666666" stroke-width="5.83333"/>
</svg>
