<svg width="580" height="300" viewBox="0 0 580 300" fill="none" xmlns="http://www.w3.org/2000/svg">
<g clip-path="url(#clip0_77_808)">
<g opacity="0.3">
<path opacity="0.3" d="M130.209 103.716V271.914C130.209 273.591 129.866 275.251 129.197 276.799C128.53 278.347 127.551 279.752 126.317 280.933C125.084 282.114 123.62 283.049 122.011 283.682C120.402 284.315 118.678 284.635 116.94 284.623H94.1966C98.6271 284.623 102.876 282.925 106.009 279.902C109.142 276.88 110.902 272.781 110.902 268.507C110.902 264.233 109.142 260.134 106.009 257.112C102.876 254.09 98.6271 252.392 94.1966 252.392H16.7058C12.2751 252.392 8.02593 250.694 4.89299 247.672C1.76007 244.649 0 240.55 0 236.276C0 232.002 1.76007 227.903 4.89299 224.881C8.02593 221.859 12.2751 220.161 16.7058 220.161H59.0428C63.4736 220.161 67.7229 218.463 70.8555 215.441C73.9885 212.418 75.7488 208.32 75.7488 204.046C75.7488 199.771 73.9885 195.673 70.8555 192.65C67.7229 189.628 63.4736 187.93 59.0428 187.93H16.7058C12.2751 187.93 8.02593 186.232 4.89299 183.21C1.76007 180.188 0 176.089 0 171.815C0 167.541 1.76007 163.442 4.89299 160.419C8.02593 157.397 12.2751 155.699 16.7058 155.699H71.238C75.6688 155.699 79.9181 154.001 83.0507 150.979C86.1837 147.957 87.944 143.858 87.944 139.584C87.944 135.31 86.1837 131.211 83.0507 128.189C79.9181 125.166 75.6688 123.468 71.238 123.468H39.6882C35.2575 123.468 31.0083 121.771 27.8753 118.748C24.7424 115.726 22.9824 111.627 22.9824 107.353C22.9824 103.079 24.7424 98.9801 27.8753 95.9578C31.0083 92.9354 35.2575 91.2377 39.6882 91.2377H116.94C120.41 91.2129 123.749 92.5092 126.234 94.8457C128.718 97.1818 130.147 100.369 130.209 103.716Z" fill="#BDDFE9"/>
<path opacity="0.3" d="M449.791 34.5341V202.802C449.791 204.473 450.131 206.127 450.797 207.671C451.459 209.214 452.433 210.616 453.659 211.796C454.882 212.977 456.337 213.912 457.939 214.549C459.539 215.187 461.257 215.513 462.987 215.51H485.803C481.371 215.51 477.123 213.812 473.99 210.79C470.857 207.768 469.098 203.669 469.098 199.395C469.098 195.121 470.857 191.022 473.99 187.999C477.123 184.977 481.371 183.279 485.803 183.279H563.222C567.655 183.279 571.902 181.582 575.036 178.559C578.169 175.537 579.928 171.438 579.928 167.164C579.928 162.89 578.169 158.791 575.036 155.769C571.902 152.746 567.655 151.049 563.222 151.049H520.958C516.526 151.049 512.278 149.351 509.144 146.328C506.011 143.306 504.253 139.207 504.253 134.933C504.253 130.659 506.011 126.56 509.144 123.538C512.278 120.516 516.526 118.818 520.958 118.818H563.222C567.655 118.818 571.902 117.12 575.036 114.098C578.169 111.075 579.928 106.976 579.928 102.703C579.928 98.4282 578.169 94.3294 575.036 91.3071C571.902 88.2847 567.655 86.5869 563.222 86.5869H508.739C504.307 86.5869 500.059 84.8891 496.926 81.8668C493.792 78.8445 492.034 74.7457 492.034 70.4714C492.034 66.1974 493.792 62.0986 496.926 59.0762C500.059 56.0539 504.307 54.3561 508.739 54.3561H540.312C544.744 54.3561 548.992 52.6583 552.125 49.636C555.259 46.6137 557.017 42.5148 557.017 38.2405C557.017 33.9666 555.259 29.8676 552.125 26.8454C548.992 23.8231 544.744 22.1253 540.312 22.1253H462.987C459.542 22.1183 456.232 23.4134 453.764 25.7329C451.3 28.0524 449.871 31.2119 449.791 34.5341Z" fill="#BDDFE9"/>
</g>
<path d="M457.285 275.366C457.288 278.504 456.651 281.612 455.407 284.513C454.166 287.413 452.342 290.049 450.045 292.27C447.747 294.491 445.019 296.254 442.016 297.458C439.009 298.662 435.789 299.283 432.536 299.286H107.179C104.617 299.286 102.079 298.799 99.7123 297.852C97.3453 296.905 95.1946 295.518 93.3837 293.769C91.5728 292.02 90.1371 289.943 89.1587 287.659C88.1804 285.374 87.6782 282.926 87.6814 280.454V31.4706C87.6814 26.4822 89.7358 21.698 93.3924 18.1706C97.049 14.6433 102.008 12.6616 107.179 12.6616H351.847C345.413 12.8543 339.31 15.4553 334.829 19.9136C330.349 24.3719 327.844 30.3376 327.844 36.5469C327.844 42.7565 330.349 48.722 334.829 53.1805C339.31 57.6386 345.413 60.2396 351.847 60.4325H398.55C404.987 60.625 411.087 63.226 415.57 67.6844C420.05 72.1426 422.553 78.1084 422.553 84.3177C422.553 90.527 420.05 96.4928 415.57 100.951C411.087 105.409 404.987 108.01 398.55 108.203H317.863C314.613 108.203 311.395 108.82 308.392 110.02C305.389 111.22 302.661 112.979 300.363 115.195C298.065 117.412 296.242 120.044 294.998 122.941C293.755 125.837 293.115 128.942 293.115 132.077C293.115 135.212 293.755 138.316 294.998 141.213C296.242 144.109 298.065 146.741 300.363 148.958C302.661 151.175 305.389 152.934 308.392 154.133C311.395 155.333 314.613 155.951 317.863 155.951H380.484C386.918 156.143 393.022 158.744 397.505 163.203C401.984 167.661 404.488 173.627 404.488 179.836C404.488 186.046 401.984 192.011 397.505 196.47C393.022 200.928 386.918 203.529 380.484 203.722H317.863C314.547 203.622 311.243 204.166 308.149 205.322C305.055 206.478 302.234 208.221 299.851 210.449C297.469 212.677 295.575 215.343 294.282 218.291C292.988 221.238 292.322 224.406 292.322 227.607C292.322 230.807 292.988 233.976 294.282 236.923C295.575 239.87 297.469 242.537 299.851 244.765C302.234 246.992 305.055 248.736 308.149 249.892C311.243 251.047 314.547 251.591 317.863 251.492H432.536C439.099 251.492 445.395 254.007 450.037 258.484C454.676 262.962 457.285 269.034 457.285 275.366Z" fill="#E0F0F5"/>
<path d="M189.253 97.4758C189.24 109.466 186.445 121.302 181.073 132.115C175.701 142.928 167.889 152.445 158.208 159.966C148.528 167.487 137.225 172.823 125.129 175.583C113.032 178.342 100.449 178.454 88.3019 175.912L87.5862 175.751V162.214C70.7608 161.4 54.5964 155.64 41.2633 145.707L40.5715 145.224C39.4495 144.418 38.3278 143.589 37.254 142.714L36.9439 142.3C28.519 130.216 23.6603 116.148 22.8882 101.605C22.1161 87.0609 25.4597 72.5883 32.5608 59.7372C39.6619 46.886 50.2531 36.1404 63.1998 28.651C76.1469 21.1615 90.9617 17.2105 106.058 17.221H107.084C110.381 17.2645 113.672 17.4951 116.94 17.9116C132.484 19.8805 147.131 26.059 159.182 35.7306C159.803 36.191 160.399 36.6975 160.972 37.204C169.768 44.6517 176.835 53.8069 181.711 64.0708C182.188 65.0608 182.642 66.0738 183.047 67.0868C187.154 76.728 189.262 87.0522 189.253 97.4758Z" fill="#BDDFE9"/>
<path d="M223.953 236.597L209.514 212.47L197.319 232.844L189.491 219.768L164.982 178.835L140.496 219.768L115.986 260.701H164.982H180.637L180.613 260.724H209.514H238.391L223.953 236.597Z" fill="#A8FF8C"/>
<path d="M485.829 31.4722V280.432C485.832 282.906 485.333 285.357 484.356 287.645C483.379 289.932 481.943 292.011 480.134 293.762C478.321 295.514 476.172 296.903 473.802 297.851C471.432 298.799 468.892 299.287 466.33 299.287H432.536C438.969 299.095 445.073 296.494 449.553 292.035C454.032 287.577 456.539 281.611 456.539 275.402C456.539 269.193 454.032 263.227 449.553 258.769C445.073 254.31 438.969 251.709 432.536 251.517H317.863C314.546 251.616 311.243 251.072 308.149 249.916C305.055 248.76 302.233 247.017 299.851 244.789C297.469 242.562 295.575 239.895 294.282 236.947C292.988 234 292.322 230.832 292.322 227.631C292.322 224.431 292.988 221.263 294.282 218.315C295.575 215.368 297.469 212.701 299.851 210.473C302.233 208.246 305.055 206.502 308.149 205.347C311.243 204.191 314.546 203.647 317.863 203.746H380.484C386.918 203.553 393.022 200.952 397.505 196.494C401.984 192.036 404.488 186.07 404.488 179.861C404.488 173.651 401.984 167.686 397.505 163.227C393.022 158.769 386.918 156.168 380.484 155.975H317.863C314.613 155.975 311.394 155.358 308.392 154.158C305.389 152.958 302.661 151.2 300.363 148.983C298.065 146.766 296.242 144.134 294.998 141.238C293.754 138.341 293.114 135.237 293.114 132.102C293.114 128.966 293.754 125.862 294.998 122.966C296.242 120.069 298.065 117.437 300.363 115.22C302.661 113.003 305.389 111.245 308.392 110.045C311.394 108.845 314.613 108.228 317.863 108.228H398.55C404.987 108.035 411.087 105.434 415.57 100.976C420.05 96.5174 422.553 90.5519 422.553 84.3423C422.553 78.1329 420.05 72.1671 415.57 67.709C411.087 63.2505 404.987 60.6496 398.55 60.457H351.847C345.413 60.2641 339.31 57.6632 334.829 53.205C330.349 48.7466 327.843 42.7811 327.843 36.5718C327.843 30.3622 330.349 24.3966 334.829 19.9383C339.31 15.4799 345.413 12.879 351.847 12.6863H466.399C471.555 12.7045 476.494 14.6911 480.134 18.2115C483.774 21.7319 485.822 26.4997 485.829 31.4722Z" fill="#BDDFE9"/>
<path d="M183.572 12.156H229.728C229.728 13.4993 229.175 14.7875 228.19 15.7374C227.206 16.6872 225.87 17.2208 224.477 17.2208H188.822C187.43 17.2208 186.095 16.6872 185.11 15.7374C184.125 14.7875 183.572 13.4993 183.572 12.156Z" fill="white"/>
<path d="M183.572 43.7424H229.728C229.728 45.0855 229.175 46.3737 228.19 47.3236C227.206 48.2735 225.87 48.8072 224.477 48.8072H188.822C187.43 48.8072 186.095 48.2735 185.11 47.3236C184.125 46.3737 183.572 45.0855 183.572 43.7424Z" fill="white"/>
<path opacity="0.7" d="M234.859 43.7424H280.991C280.991 45.0855 280.437 46.3737 279.453 47.3236C278.468 48.2735 277.133 48.8072 275.74 48.8072H240.11C238.717 48.8072 237.381 48.2735 236.397 47.3236C235.412 46.3737 234.859 45.0855 234.859 43.7424Z" fill="white"/>
<path d="M130.209 12.156H176.341C176.341 13.4993 175.788 14.7875 174.804 15.7374C173.819 16.6872 172.483 17.2208 171.091 17.2208H135.46C134.067 17.2208 132.732 16.6872 131.747 15.7374C130.763 14.7875 130.209 13.4993 130.209 12.156Z" fill="white"/>
<path d="M59.8308 84.4224L48.9241 78.9202L36.6572 79.9793L42.3375 69.4584L41.2397 57.6248L52.17 63.1043L64.4368 62.0452L58.733 72.5892L59.8308 84.4224Z" fill="#EEF0F1"/>
<path d="M51.9073 105.971C54.1875 105.971 56.0361 104.188 56.0361 101.988C56.0361 99.7886 54.1875 98.0054 51.9073 98.0054C49.6271 98.0054 47.7786 99.7886 47.7786 101.988C47.7786 104.188 49.6271 105.971 51.9073 105.971Z" fill="#EEF0F1"/>
<path d="M270.657 13.422H250.587C249.953 13.422 249.347 13.1795 248.899 12.7477C248.451 12.316 248.2 11.7304 248.2 11.1198C248.2 10.5093 248.451 9.92369 248.899 9.49193C249.347 9.06021 249.953 8.81763 250.587 8.81763H270.585C271.218 8.81763 271.825 9.06021 272.273 9.49193C272.721 9.92369 272.972 10.5093 272.972 11.1198C272.972 11.7304 272.721 12.316 272.273 12.7477C271.825 13.1795 271.218 13.422 270.585 13.422H270.657Z" fill="#183154"/>
<path d="M254.071 300H107.728C101.939 299.976 96.394 297.742 92.3069 293.786C88.2194 289.83 85.9214 284.474 85.9153 278.889V29.9288C85.9218 24.3317 88.2295 18.9655 92.3322 15.0077C96.4349 11.0499 101.998 8.82373 107.8 8.81763H231.661C232.294 8.81763 232.901 9.06021 233.349 9.49193C233.796 9.92369 234.048 10.5093 234.048 11.1198C234.048 11.7304 233.796 12.316 233.349 12.7477C232.901 13.1795 232.294 13.422 231.661 13.422H107.728C103.205 13.4463 98.8739 15.1955 95.6819 18.2878C92.4896 21.3801 90.6946 25.5647 90.6884 29.9288V278.889C90.6946 283.265 92.4997 287.46 95.7073 290.554C98.9148 293.649 103.264 295.39 107.8 295.396H254.142C254.775 295.396 255.382 295.638 255.83 296.07C256.278 296.502 256.529 297.088 256.529 297.698C256.529 298.308 256.278 298.894 255.83 299.326C255.382 299.758 254.775 300 254.142 300H254.071Z" fill="#183154"/>
<path d="M293.807 300H267.555C266.922 300 266.315 299.757 265.867 299.326C265.42 298.894 265.168 298.308 265.168 297.697C265.168 297.087 265.42 296.501 265.867 296.07C266.315 295.638 266.922 295.396 267.555 295.396H293.807C294.44 295.396 295.047 295.638 295.494 296.07C295.942 296.501 296.193 297.087 296.193 297.697C296.193 298.308 295.942 298.894 295.494 299.326C295.047 299.757 294.44 300 293.807 300Z" fill="#183154"/>
<path d="M305.835 300H303.878C303.245 300 302.638 299.757 302.19 299.326C301.743 298.894 301.491 298.308 301.491 297.697C301.491 297.087 301.743 296.501 302.19 296.07C302.638 295.638 303.245 295.396 303.878 295.396H305.835C306.468 295.396 307.075 295.638 307.522 296.07C307.97 296.501 308.221 297.087 308.221 297.697C308.221 298.308 307.97 298.894 307.522 299.326C307.075 299.757 306.468 300 305.835 300Z" fill="#183154"/>
<path d="M466.877 300.001H317.171C316.538 300.001 315.931 299.758 315.483 299.326C315.036 298.895 314.784 298.309 314.784 297.698C314.784 297.088 315.036 296.502 315.483 296.071C315.931 295.639 316.538 295.396 317.171 295.396H466.877C471.417 295.396 475.77 293.657 478.98 290.562C482.185 287.466 483.991 283.267 483.991 278.889V146.812C483.991 146.202 484.24 145.616 484.689 145.184C485.138 144.752 485.742 144.51 486.375 144.51C487.008 144.51 487.616 144.752 488.065 145.184C488.51 145.616 488.763 146.202 488.763 146.812V278.889C488.756 284.487 486.448 289.853 482.344 293.811C478.241 297.769 472.68 299.994 466.877 300.001Z" fill="#183154"/>
<path d="M486.375 136.728C485.742 136.728 485.138 136.486 484.689 136.054C484.24 135.622 483.991 135.037 483.991 134.426V130.789C483.991 130.178 484.24 129.592 484.689 129.161C485.138 128.729 485.742 128.486 486.375 128.486C487.008 128.486 487.616 128.729 488.065 129.161C488.51 129.592 488.763 130.178 488.763 130.789V134.426C488.763 135.037 488.51 135.622 488.065 136.054C487.616 136.486 487.008 136.728 486.375 136.728Z" fill="#183154"/>
<path d="M486.375 121.004C485.742 121.004 485.138 120.761 484.689 120.33C484.24 119.898 483.991 119.312 483.991 118.702V99.317C483.991 98.7065 484.24 98.1208 484.689 97.6889C485.138 97.2574 485.742 97.0146 486.375 97.0146C487.008 97.0146 487.616 97.2574 488.065 97.6889C488.51 98.1208 488.763 98.7065 488.763 99.317V118.702C488.763 119.312 488.51 119.898 488.065 120.33C487.616 120.761 487.008 121.004 486.375 121.004Z" fill="#183154"/>
<path d="M486.375 83.6623C485.742 83.6623 485.138 83.4199 484.689 82.988C484.24 82.5561 483.991 81.9708 483.991 81.36V29.9288C483.991 25.551 482.185 21.3524 478.979 18.2568C475.77 15.1612 471.417 13.422 466.877 13.422H297.601C296.968 13.422 296.361 13.1795 295.914 12.7477C295.466 12.316 295.215 11.7304 295.215 11.1198C295.215 10.5093 295.466 9.92369 295.914 9.49193C296.361 9.06021 296.968 8.81763 297.601 8.81763H466.877C472.68 8.82373 478.245 11.0499 482.344 15.0077C486.447 18.9655 488.756 24.3317 488.763 29.9288V81.36C488.763 81.9708 488.51 82.5561 488.065 82.988C487.616 83.4199 487.008 83.6623 486.375 83.6623Z" fill="#183154"/>
<path d="M283.998 13.422H281.11C280.478 13.422 279.87 13.1795 279.423 12.7477C278.975 12.316 278.724 11.7304 278.724 11.1198C278.724 10.5093 278.975 9.92369 279.423 9.49193C279.87 9.06021 280.478 8.81763 281.11 8.81763H283.998C284.631 8.81763 285.238 9.06021 285.686 9.49193C286.133 9.92369 286.385 10.5093 286.385 11.1198C286.385 11.7304 286.133 12.316 285.686 12.7477C285.238 13.1795 284.631 13.422 283.998 13.422Z" fill="#183154"/>
<path d="M171.807 32.5529C174.601 32.5529 176.866 30.3677 176.866 27.6722C176.866 24.9767 174.601 22.7915 171.807 22.7915C169.013 22.7915 166.747 24.9767 166.747 27.6722C166.747 30.3677 169.013 32.5529 171.807 32.5529Z" fill="#8BBBC6"/>
<path d="M186.365 32.5529C189.159 32.5529 191.424 30.3677 191.424 27.6722C191.424 24.9767 189.159 22.7915 186.365 22.7915C183.57 22.7915 181.305 24.9767 181.305 27.6722C181.305 30.3677 183.57 32.5529 186.365 32.5529Z" fill="#8BBBC6"/>
<path d="M201.591 32.5529C204.385 32.5529 206.65 30.3677 206.65 27.6722C206.65 24.9767 204.385 22.7915 201.591 22.7915C198.796 22.7915 196.531 24.9767 196.531 27.6722C196.531 30.3677 198.796 32.5529 201.591 32.5529Z" fill="#8BBBC6"/>
<path d="M172.141 33.6819C170.905 33.6819 169.697 33.3287 168.67 32.667C167.642 32.0052 166.84 31.0645 166.366 29.9637C165.892 28.8629 165.767 27.6513 166.007 26.4819C166.246 25.3125 166.839 24.2377 167.711 23.3932C168.583 22.5487 169.695 21.9725 170.907 21.7371C172.118 21.5018 173.374 21.618 174.517 22.071C175.66 22.524 176.638 23.2935 177.328 24.2824C178.018 25.2713 178.389 26.4352 178.394 27.6271C178.397 28.4212 178.237 29.208 177.924 29.9425C177.612 30.677 177.152 31.3446 176.571 31.9072C175.99 32.4697 175.299 32.916 174.539 33.2206C173.779 33.5252 172.964 33.6819 172.141 33.6819ZM172.141 23.9436C171.374 23.9437 170.625 24.1636 169.988 24.5755C169.351 24.9874 168.856 25.5726 168.565 26.2568C168.274 26.941 168.2 27.6932 168.353 28.4179C168.506 29.1426 168.879 29.807 169.424 30.3267C169.97 30.8465 170.663 31.198 171.416 31.3366C172.169 31.4753 172.948 31.3948 173.654 31.1055C174.359 30.8161 174.96 30.3309 175.379 29.7116C175.798 29.0922 176.017 28.3667 176.007 27.6271C175.988 26.6479 175.574 25.7145 174.851 25.0262C174.129 24.338 173.156 23.9495 172.141 23.9436Z" fill="#183154"/>
<path d="M186.699 33.6819C185.463 33.6819 184.255 33.3287 183.228 32.667C182.2 32.0052 181.398 31.0645 180.925 29.9637C180.451 28.8629 180.325 27.6513 180.565 26.4819C180.804 25.3125 181.397 24.2377 182.269 23.3932C183.141 22.5487 184.253 21.9725 185.464 21.7371C186.676 21.5018 187.932 21.618 189.075 22.071C190.218 22.524 191.196 23.2935 191.886 24.2824C192.576 25.2713 192.947 26.4352 192.952 27.6271C192.955 28.4212 192.795 29.208 192.483 29.9425C192.17 30.677 191.71 31.3446 191.129 31.9072C190.548 32.4697 189.857 32.916 189.097 33.2206C188.337 33.5252 187.522 33.6819 186.699 33.6819ZM186.699 23.9436C185.932 23.9437 185.183 24.1636 184.546 24.5755C183.909 24.9874 183.414 25.5726 183.123 26.2568C182.831 26.941 182.758 27.6932 182.911 28.4179C183.064 29.1426 183.437 29.807 183.982 30.3267C184.528 30.8465 185.221 31.198 185.974 31.3366C186.728 31.4753 187.506 31.3948 188.212 31.1055C188.917 30.8161 189.518 30.3309 189.937 29.7116C190.356 29.0922 190.574 28.3667 190.565 27.6271C190.547 26.6479 190.132 25.7145 189.409 25.0262C188.687 24.338 187.714 23.9495 186.699 23.9436Z" fill="#183154"/>
<path d="M201.925 33.6819C200.689 33.6819 199.481 33.3287 198.453 32.667C197.426 32.0052 196.624 31.0645 196.15 29.9637C195.676 28.8629 195.551 27.6513 195.79 26.4819C196.03 25.3125 196.623 24.2377 197.495 23.3932C198.367 22.5487 199.479 21.9725 200.69 21.7371C201.902 21.5018 203.158 21.618 204.301 22.071C205.444 22.524 206.422 23.2935 207.112 24.2824C207.802 25.2713 208.173 26.4352 208.177 27.6271C208.184 28.422 208.026 29.2102 207.715 29.9461C207.403 30.6819 206.943 31.3508 206.362 31.914C205.78 32.4771 205.088 32.9234 204.327 33.2268C203.565 33.5303 202.749 33.685 201.925 33.6819ZM201.925 23.9436C201.158 23.9437 200.409 24.1636 199.772 24.5755C199.135 24.9874 198.64 25.5726 198.348 26.2568C198.057 26.941 197.984 27.6932 198.137 28.4179C198.29 29.1426 198.663 29.807 199.208 30.3267C199.754 30.8465 200.447 31.198 201.2 31.3366C201.953 31.4753 202.732 31.3948 203.437 31.1055C204.143 30.8161 204.744 30.3309 205.163 29.7116C205.582 29.0922 205.801 28.3667 205.791 27.6271C205.778 26.646 205.366 25.7092 204.642 25.0197C203.918 24.3302 202.942 23.9436 201.925 23.9436Z" fill="#183154"/>
<path d="M431.964 95.2882H287.315C286.049 95.2882 284.835 94.8033 283.94 93.9396C283.045 93.0762 282.542 91.9052 282.542 90.6839C282.542 89.4626 283.045 88.2916 283.94 87.4282C284.835 86.5645 286.049 86.0796 287.315 86.0796H431.964C433.231 86.0796 434.443 86.5645 435.336 87.4282C436.234 88.2916 436.737 89.4626 436.737 90.6839C436.737 91.9052 436.234 93.0762 435.336 93.9396C434.443 94.8033 433.231 95.2882 431.964 95.2882Z" fill="#8BBBC6"/>
<path d="M336.502 117.159H287.315C286.049 117.159 284.835 116.674 283.94 115.81C283.045 114.947 282.542 113.776 282.542 112.554C282.542 111.333 283.045 110.162 283.94 109.299C284.835 108.435 286.049 107.95 287.315 107.95H336.502C337.768 107.95 338.981 108.435 339.877 109.299C340.772 110.162 341.275 111.333 341.275 112.554C341.275 113.776 340.772 114.947 339.877 115.81C338.981 116.674 337.768 117.159 336.502 117.159Z" fill="#8BBBC6"/>
<path d="M336.502 166.933H287.315C286.049 166.933 284.835 166.448 283.94 165.585C283.045 164.721 282.542 163.55 282.542 162.329C282.542 161.108 283.045 159.937 283.94 159.073C284.835 158.21 286.049 157.725 287.315 157.725H336.502C337.768 157.725 338.981 158.21 339.877 159.073C340.772 159.937 341.275 161.108 341.275 162.329C341.275 163.55 340.772 164.721 339.877 165.585C338.981 166.448 337.768 166.933 336.502 166.933Z" fill="#389D9C"/>
<path d="M402.226 139.031H374.496C373.23 139.031 372.014 138.545 371.12 137.682C370.223 136.819 369.72 135.647 369.72 134.426C369.72 133.205 370.223 132.034 371.12 131.17C372.014 130.307 373.23 129.822 374.496 129.822H402.226C403.493 129.822 404.708 130.307 405.602 131.17C406.496 132.034 406.999 133.205 406.999 134.426C406.999 135.647 406.496 136.819 405.602 137.682C404.708 138.545 403.493 139.031 402.226 139.031Z" fill="#8BBBC6"/>
<path opacity="0.8" d="M445.829 139.031H418.096C416.833 139.031 415.617 138.545 414.723 137.682C413.826 136.819 413.323 135.647 413.323 134.426C413.323 133.205 413.826 132.034 414.723 131.17C415.617 130.307 416.833 129.822 418.096 129.822H445.829C447.096 129.822 448.308 130.307 449.205 131.17C450.099 132.034 450.602 133.205 450.602 134.426C450.602 135.647 450.099 136.819 449.205 137.682C448.308 138.545 447.096 139.031 445.829 139.031Z" fill="#8BBBC6"/>
<path d="M315.023 139.031H287.315C286.049 139.031 284.835 138.545 283.94 137.682C283.045 136.819 282.542 135.647 282.542 134.426C282.542 133.205 283.045 132.034 283.94 131.17C284.835 130.307 286.049 129.822 287.315 129.822H315.023C316.288 129.822 317.503 130.307 318.398 131.17C319.293 132.034 319.796 133.205 319.796 134.426C319.796 135.647 319.293 136.819 318.398 137.682C317.503 138.545 316.288 139.031 315.023 139.031Z" fill="#8BBBC6"/>
<path opacity="0.3" d="M358.625 139.031H330.917C329.651 139.031 328.437 138.545 327.542 137.682C326.647 136.819 326.144 135.647 326.144 134.426C326.144 133.205 326.647 132.034 327.542 131.17C328.437 130.307 329.651 129.822 330.917 129.822H358.625C359.891 129.822 361.105 130.307 361.999 131.17C362.896 132.034 363.399 133.205 363.399 134.426C363.399 135.647 362.896 136.819 361.999 137.682C361.105 138.545 359.891 139.031 358.625 139.031Z" fill="#8BBBC6"/>
<path d="M431.964 191.313H287.315C286.049 191.313 284.835 190.827 283.94 189.964C283.045 189.1 282.542 187.929 282.542 186.708C282.542 185.487 283.045 184.316 283.94 183.452C284.835 182.589 286.049 182.104 287.315 182.104H431.964C433.231 182.104 434.443 182.589 435.336 183.452C436.234 184.316 436.737 185.487 436.737 186.708C436.737 187.929 436.234 189.1 435.336 189.964C434.443 190.827 433.231 191.313 431.964 191.313Z" fill="#8BBBC6"/>
<path d="M336.502 213.185H287.315C286.049 213.185 284.835 212.699 283.94 211.836C283.045 210.973 282.542 209.801 282.542 208.58C282.542 207.359 283.045 206.188 283.94 205.324C284.835 204.461 286.049 203.976 287.315 203.976H336.502C337.768 203.976 338.981 204.461 339.877 205.324C340.772 206.188 341.275 207.359 341.275 208.58C341.275 209.801 340.772 210.973 339.877 211.836C338.981 212.699 337.768 213.185 336.502 213.185Z" fill="#8BBBC6"/>
<path d="M336.502 262.958H287.315C286.049 262.958 284.835 262.473 283.94 261.609C283.045 260.746 282.542 259.575 282.542 258.353C282.542 257.132 283.045 255.961 283.94 255.098C284.835 254.234 286.049 253.749 287.315 253.749H336.502C337.768 253.749 338.981 254.234 339.877 255.098C340.772 255.961 341.275 257.132 341.275 258.353C341.275 259.575 340.772 260.746 339.877 261.609C338.981 262.473 337.768 262.958 336.502 262.958Z" fill="#389D9C"/>
<path d="M402.226 235.055H374.496C373.23 235.055 372.014 234.57 371.12 233.706C370.223 232.843 369.72 231.672 369.72 230.45C369.72 229.229 370.223 228.058 371.12 227.195C372.014 226.331 373.23 225.846 374.496 225.846H402.226C403.493 225.846 404.708 226.331 405.602 227.195C406.496 228.058 406.999 229.229 406.999 230.45C406.999 231.672 406.496 232.843 405.602 233.706C404.708 234.57 403.493 235.055 402.226 235.055Z" fill="#8BBBC6"/>
<path opacity="0.8" d="M445.829 235.055H418.096C416.833 235.055 415.617 234.57 414.723 233.706C413.826 232.843 413.323 231.672 413.323 230.45C413.323 229.229 413.826 228.058 414.723 227.195C415.617 226.331 416.833 225.846 418.096 225.846H445.829C447.096 225.846 448.308 226.331 449.205 227.195C450.099 228.058 450.602 229.229 450.602 230.45C450.602 231.672 450.099 232.843 449.205 233.706C448.308 234.57 447.096 235.055 445.829 235.055Z" fill="#8BBBC6"/>
<path d="M315.023 235.055H287.315C286.049 235.055 284.835 234.57 283.94 233.706C283.045 232.843 282.542 231.672 282.542 230.45C282.542 229.229 283.045 228.058 283.94 227.195C284.835 226.331 286.049 225.846 287.315 225.846H315.023C316.288 225.846 317.503 226.331 318.398 227.195C319.293 228.058 319.796 229.229 319.796 230.45C319.796 231.672 319.293 232.843 318.398 233.706C317.503 234.57 316.288 235.055 315.023 235.055Z" fill="#8BBBC6"/>
<path opacity="0.3" d="M358.625 235.055H330.917C329.651 235.055 328.437 234.57 327.542 233.706C326.647 232.843 326.144 231.672 326.144 230.45C326.144 229.229 326.647 228.058 327.542 227.195C328.437 226.331 329.651 225.846 330.917 225.846H358.625C359.891 225.846 361.105 226.331 361.999 227.195C362.896 228.058 363.399 229.229 363.399 230.45C363.399 231.672 362.896 232.843 361.999 233.706C361.105 234.57 359.891 235.055 358.625 235.055Z" fill="#8BBBC6"/>
<path d="M177.057 82.096C177.057 92.634 174.905 103.069 170.724 112.805C166.542 122.541 160.414 131.386 152.688 138.836C144.963 146.287 135.791 152.197 125.698 156.227C115.604 160.258 104.786 162.331 93.8623 162.328C92.6451 162.328 91.4757 162.328 90.2108 162.328H89.4951C72.6697 161.514 56.5053 155.754 43.1722 145.821L42.5039 145.337C41.2632 144.394 40.1177 143.404 38.8766 142.414C23.2212 129.195 13.2685 110.797 10.9811 90.8483C8.6937 70.8997 14.2377 50.8485 26.5197 34.6484C38.8017 18.4485 56.9305 7.27575 77.3303 3.33359C97.7305 -0.60858 118.922 2.96594 136.724 13.3522C138.873 14.5954 140.949 15.9307 142.954 17.3351L143.264 17.5423C150.934 23.0102 157.584 29.6977 162.929 37.3182C168.65 45.4747 172.752 54.5846 175.028 64.1849C175.267 65.1749 175.482 66.188 175.673 67.2006C176.613 72.1137 177.077 77.1003 177.057 82.096Z" fill="#A8FF8C"/>
<path d="M177.892 83.2478C177.88 104.525 169.109 124.926 153.508 139.967C137.908 155.008 116.754 163.457 94.698 163.456C94.0059 163.456 93.2898 163.456 92.5976 163.456C92.3592 163.456 92.1204 163.456 91.8816 163.456C75.1763 162.947 59.0242 157.561 45.559 148.009L44.8907 147.525C43.7691 146.719 42.6475 145.891 41.5736 145.016C34.7475 139.539 28.8669 133.05 24.1519 125.792C24.5814 126.069 25.0349 126.322 25.4883 126.575C28.0431 128.084 30.6889 129.445 33.4116 130.65C44.2992 135.493 56.1463 137.999 68.1356 137.994C76.1424 138 84.1079 136.891 91.7864 134.702L92.5021 134.495C107.569 130.057 121.022 121.585 131.296 110.064C141.57 98.543 148.244 84.4461 150.543 69.4116C150.71 68.3985 150.829 67.4085 150.949 66.3955C151.265 63.5204 151.424 60.631 151.426 57.7395C151.428 52.7183 150.941 47.708 149.97 42.7751C148.908 37.3119 147.253 31.972 145.03 26.8438C143.956 24.3431 142.745 21.8993 141.402 19.5228C140.639 18.1645 139.851 16.8292 139.016 15.54L138.777 15.1716C141.011 16.5112 143.17 17.9636 145.245 19.5228L145.531 19.73C152.457 24.9234 158.49 31.1391 163.406 38.1477C169.493 46.7138 173.775 56.3511 176.007 66.5106C176.246 67.5006 176.461 68.5137 176.628 69.5267C177.455 74.057 177.878 78.6477 177.892 83.2478Z" fill="#389D9C"/>
<path d="M93.8861 110.253C92.0575 110.255 90.2885 109.626 88.8984 108.48L69.4718 92.3646C68.6534 91.8114 67.9641 91.0991 67.4482 90.273C66.9322 89.4473 66.6015 88.5264 66.4767 87.5699C66.3522 86.613 66.4365 85.6419 66.7245 84.7185C67.0125 83.7955 67.4977 82.9405 68.1487 82.2089C68.7999 81.4774 69.6025 80.8855 70.5052 80.4714C71.4076 80.0573 72.3903 79.8299 73.3893 79.8044C74.3886 79.7786 75.3822 79.9548 76.3063 80.3221C77.2308 80.6891 78.0647 81.2388 78.7555 81.9358L92.526 93.3316L112.167 65.5209C112.695 64.7653 113.372 64.1172 114.16 63.6138C114.948 63.1105 115.831 62.7616 116.758 62.5876C117.686 62.4131 118.639 62.417 119.565 62.5984C120.491 62.7798 121.371 63.1352 122.155 63.6449C122.938 64.1542 123.61 64.8076 124.132 65.5673C124.654 66.3271 125.015 67.1789 125.196 68.0734C125.377 68.9681 125.373 69.8884 125.184 70.7817C124.997 71.6748 124.628 72.5235 124.1 73.2794L100.234 107.03C99.6232 107.89 98.8315 108.618 97.9107 109.165C96.9898 109.712 95.9604 110.067 94.8887 110.207C94.5559 110.245 94.2212 110.26 93.8861 110.253Z" fill="white"/>
<g opacity="0.15">
<path opacity="0.15" d="M61.9304 51.5236C70.313 51.5236 77.1088 44.9683 77.1088 36.8819C77.1088 28.7952 70.313 22.2397 61.9304 22.2397C53.5473 22.2397 46.752 28.7952 46.752 36.8819C46.752 44.9683 53.5473 51.5236 61.9304 51.5236Z" fill="white"/>
<path opacity="0.15" d="M44.4371 65.8203C48.6285 65.8203 52.0263 62.5426 52.0263 58.4993C52.0263 54.4559 48.6285 51.1782 44.4371 51.1782C40.2458 51.1782 36.8479 54.4559 36.8479 58.4993C36.8479 62.5426 40.2458 65.8203 44.4371 65.8203Z" fill="white"/>
</g>
<path d="M11.5031 96.2561C10.924 96.2617 10.3626 96.0639 9.92349 95.6993C9.48438 95.3352 9.1976 94.8293 9.11655 94.2761C8.56362 90.3928 8.28454 86.4778 8.28125 82.5579C8.28125 81.9475 8.53268 81.3618 8.98025 80.9299C9.42783 80.4984 10.0348 80.2556 10.6678 80.2556C11.3007 80.2556 11.9078 80.4984 12.3553 80.9299C12.8029 81.3618 13.0543 81.9475 13.0543 82.5579C13.0536 86.2622 13.3168 89.962 13.8419 93.6314C13.933 94.2189 13.7852 94.8178 13.4294 95.3027C13.0736 95.7872 12.5373 96.1207 11.9326 96.2331L11.5031 96.2561Z" fill="#183154"/>
<path d="M15.9657 113.106C15.4822 113.103 15.0111 112.959 14.6147 112.691C14.2184 112.424 13.9155 112.047 13.7463 111.61C12.673 108.85 11.7489 106.037 10.9779 103.184C10.899 102.891 10.8809 102.585 10.9246 102.285C10.9683 101.985 11.073 101.696 11.2326 101.435C11.3923 101.175 11.6037 100.947 11.8548 100.765C12.106 100.583 12.3919 100.45 12.6962 100.375C13.0002 100.299 13.3168 100.282 13.6278 100.324C13.9389 100.366 14.2382 100.467 14.5087 100.621C14.7792 100.775 15.0155 100.979 15.2041 101.221C15.3927 101.464 15.5299 101.739 15.6078 102.033C16.3338 104.729 17.2021 107.388 18.2091 109.998C18.4265 110.567 18.4031 111.195 18.1441 111.746C17.885 112.298 17.411 112.728 16.8249 112.945C16.5527 113.054 16.2605 113.109 15.9657 113.106Z" fill="#183154"/>
<path d="M37.8979 77.538C38.8474 77.538 39.7581 77.1741 40.4292 76.5263C41.1004 75.8789 41.4778 75.0005 41.4778 74.0845C41.4778 73.1688 41.1004 72.2904 40.4292 71.6426C39.7581 70.9952 38.8474 70.6313 37.8979 70.6313C36.9485 70.6313 36.038 70.9952 35.3666 71.6426C34.6953 72.2904 34.3181 73.1688 34.3181 74.0845C34.3181 75.0005 34.6953 75.8789 35.3666 76.5263C36.038 77.1741 36.9485 77.538 37.8979 77.538Z" fill="#FDFEFF"/>
<path d="M44.7954 102.357C42.6954 97.4062 41.4536 92.1562 41.12 86.8169C40.8816 83.5019 35.5117 83.4789 35.7504 86.8169C36.1723 93.0653 37.6643 99.2031 40.1655 104.981C41.5021 108.043 46.132 105.396 44.7954 102.357Z" fill="#FDFEFF"/>
<path d="M486.375 43.9263H167.201C166.568 43.9263 165.961 43.6839 165.513 43.252C165.066 42.8202 164.814 42.2348 164.814 41.624C164.814 41.0135 165.066 40.4278 165.513 39.9963C165.961 39.5645 166.568 39.322 167.201 39.322H486.375C487.008 39.322 487.616 39.5645 488.065 39.9963C488.51 40.4278 488.763 41.0135 488.763 41.624C488.763 42.2348 488.51 42.8202 488.065 43.252C487.616 43.6839 487.008 43.9263 486.375 43.9263Z" fill="#183154"/>
<path d="M242.377 264.132H176.389H111.714L164.838 175.336L197.152 229.345L209.371 208.948L242.377 264.132ZM184.551 259.527H234.119L209.371 218.087L197.152 238.485L164.838 184.544L119.971 259.481H184.575L184.551 259.527Z" fill="#183154"/>
<path d="M93.8626 165.091C92.5976 165.091 91.3088 165.091 90.0678 165.091H89.2566C71.9814 164.252 55.3886 158.322 41.7165 148.101L41.1199 147.686C39.7359 146.651 38.5187 145.638 37.3015 144.625C30.9727 139.246 25.504 132.993 21.0731 126.069C19.5631 123.701 18.1849 121.257 16.9444 118.748C16.7784 118.475 16.6726 118.172 16.6336 117.857C16.5945 117.543 16.6231 117.224 16.7175 116.921C16.8119 116.618 16.9701 116.337 17.1822 116.095C17.3943 115.854 17.6558 115.657 17.9502 115.517C18.2447 115.378 18.5659 115.298 18.8937 115.284C19.2215 115.269 19.5489 115.32 19.8554 115.433C20.1619 115.546 20.441 115.719 20.6751 115.941C20.9093 116.162 21.0935 116.429 21.2163 116.722C22.4096 119.024 23.6028 121.326 25.1302 123.513C29.343 130.063 34.5475 135.969 40.571 141.033C41.7165 141.977 42.9575 142.944 44.0792 143.888L44.7475 144.348C57.6815 154.032 73.3828 159.656 89.7338 160.464H90.3305C91.6193 160.464 92.7171 160.464 93.982 160.464C115.379 160.415 135.884 152.189 151.007 137.588C166.13 122.986 174.639 103.198 174.671 82.5572C174.673 77.6745 174.193 72.8026 173.239 68.0075C173.048 67.0175 172.857 66.0275 172.618 65.0835C170.438 55.8167 166.498 47.0197 160.996 39.1377L160.852 38.9305C155.705 31.5705 149.298 25.1089 141.903 19.8223L141.546 19.5921C139.445 18.0573 137.393 16.745 135.388 15.6553C124.091 9.12846 111.312 5.36366 98.1625 4.68856C85.0131 4.01345 71.8917 6.44851 59.9407 11.7818C47.9894 17.115 37.57 25.1849 29.5899 35.2894C21.6096 45.3934 16.31 57.226 14.1522 69.7569C13.955 70.246 13.5907 70.6552 13.1196 70.9172C12.6485 71.1788 12.0988 71.2779 11.5615 71.1973C11.0241 71.1167 10.5315 70.8617 10.165 70.4741C9.79848 70.0866 9.58015 69.5898 9.54614 69.0662C11.8412 55.8104 17.4545 43.2948 25.8991 32.6054C34.3437 21.9161 45.3644 13.3758 58.0053 7.72554C70.6463 2.07531 84.5254 -0.514225 98.4385 0.181598C112.352 0.877422 125.879 4.83758 137.846 11.7185C139.97 12.9617 142.142 14.343 144.242 15.8164L144.576 16.0467C152.407 21.6085 159.201 28.4122 164.671 36.1681L164.838 36.398C170.741 44.7767 174.966 54.1468 177.296 64.0245C177.535 65.0375 177.773 66.0736 177.964 67.1326C178.956 72.211 179.459 77.3668 179.467 82.5341C179.442 104.426 170.414 125.414 154.365 140.892C138.316 156.37 116.556 165.073 93.8626 165.091Z" fill="#183154"/>
<g opacity="0.4">
<path opacity="0.4" d="M83.3137 56.2656C91.6964 56.2656 98.4921 49.7103 98.4921 41.6235C98.4921 33.5371 91.6964 26.9817 83.3137 26.9817C74.931 26.9817 68.1353 33.5371 68.1353 41.6235C68.1353 49.7103 74.931 56.2656 83.3137 56.2656Z" fill="white"/>
<path opacity="0.4" d="M65.8204 70.5619C70.0121 70.5619 73.4096 67.2842 73.4096 63.2412C73.4096 59.1978 70.0121 55.9202 65.8204 55.9202C61.6291 55.9202 58.2312 59.1978 58.2312 63.2412C58.2312 67.2842 61.6291 70.5619 65.8204 70.5619Z" fill="white"/>
</g>
<path d="M193.644 186.708C201.947 186.708 208.679 180.214 208.679 172.204C208.679 164.194 201.947 157.7 193.644 157.7C185.34 157.7 178.608 164.194 178.608 172.204C178.608 180.214 185.34 186.708 193.644 186.708Z" fill="#A8FF8C"/>
<path d="M194.479 189.011C191.033 189.011 187.665 188.025 184.8 186.179C181.935 184.332 179.702 181.707 178.383 178.636C177.064 175.565 176.719 172.186 177.392 168.926C178.064 165.666 179.723 162.672 182.159 160.321C184.596 157.971 187.7 156.37 191.08 155.722C194.459 155.073 197.962 155.406 201.146 156.678C204.329 157.95 207.05 160.104 208.964 162.868C210.879 165.632 211.9 168.881 211.9 172.205C211.894 176.66 210.057 180.931 206.791 184.082C203.525 187.232 199.097 189.005 194.479 189.011ZM194.479 160.026C191.976 160.026 189.529 160.742 187.449 162.084C185.368 163.426 183.747 165.333 182.79 167.564C181.834 169.795 181.585 172.249 182.075 174.617C182.565 176.984 183.772 179.159 185.543 180.864C187.315 182.57 189.571 183.73 192.026 184.198C194.481 184.666 197.025 184.421 199.335 183.494C201.646 182.567 203.62 181 205.007 178.99C206.394 176.98 207.132 174.619 207.127 172.205C207.121 168.973 205.786 165.875 203.414 163.592C201.043 161.309 197.829 160.026 194.479 160.026Z" fill="#183154"/>
</g>
<defs>
<clipPath id="clip0_77_808">
<rect width="580" height="300" fill="white"/>
</clipPath>
</defs>
</svg>
