<svg width="500" height="310" viewBox="0 0 500 310" fill="none" xmlns="http://www.w3.org/2000/svg">
<path d="M473.631 186.866C455.96 235.792 422.737 278.656 376.59 297.494C370.588 299.94 364.46 302.016 358.235 303.71C325.311 312.686 289.292 309.563 258.942 293.208C246.061 286.26 234.316 277.081 221.388 270.233C208.46 263.386 193.697 258.904 179.627 262.284C167.512 265.194 157.29 273.534 146.998 280.964C122.737 298.479 93.5653 312.341 64.8367 306.325C51.6174 303.56 38.6003 295.902 32.4611 283.101C18.8919 254.8 44.4829 221.153 39.3002 189.855C35.9837 169.824 20.8359 154.824 11.4191 137.146C-4.69672 106.908 -2.7916 66.7419 16.1042 38.4083C35 10.0747 69.8834 -4.95488 101.866 1.47269C140.867 9.31382 170.354 44.6071 208.278 57.0964C231.995 64.9001 257.745 62.5719 280.397 52.2944C316.995 35.6851 367.274 10.2119 408.46 14.3611C430.362 16.5687 451.843 26.9626 466.299 44.7111C484.572 67.1161 490.05 98.9255 487.002 128.469C484.91 148.468 480.416 168.095 473.631 186.866Z" fill="url(#paint0_linear_77_456)"/>
<path d="M485.389 225.565C484.576 225.564 483.768 225.46 482.978 225.253C480.482 224.597 478.317 222.948 476.921 220.641C475.525 218.335 475.004 215.545 475.467 212.842C475.925 210.139 477.337 207.727 479.405 206.097C481.474 204.468 484.048 203.744 486.598 204.074C489.149 204.404 491.485 205.763 493.13 207.873C494.778 209.983 495.607 212.685 495.455 215.428C495.299 218.171 494.172 220.747 492.302 222.631C490.432 224.515 487.959 225.564 485.389 225.565ZM485.389 208.86C484.051 208.866 482.764 209.394 481.765 210.344C480.766 211.295 480.128 212.604 479.969 214.023C479.813 215.442 480.144 216.874 480.906 218.05C481.664 219.226 482.799 220.063 484.098 220.406C484.848 220.599 485.63 220.62 486.392 220.467C487.15 220.314 487.869 219.991 488.503 219.519C489.137 219.047 489.673 218.437 490.07 217.728C490.467 217.02 490.723 216.229 490.813 215.409C490.906 214.588 490.832 213.756 490.603 212.968C490.373 212.179 489.988 211.452 489.475 210.833C488.962 210.214 488.336 209.719 487.628 209.379C486.925 209.039 486.163 208.862 485.389 208.86Z" fill="#E7F6FF"/>
<path d="M476.186 237.002C476.757 234.473 475.307 231.927 472.939 231.314C470.576 230.7 468.196 232.253 467.621 234.782C467.049 237.31 468.499 239.856 470.863 240.469C473.231 241.082 475.61 239.53 476.186 237.002Z" fill="#E7F6FF"/>
<path d="M21.4579 224.537C18.7874 224.475 16.2477 223.289 14.3901 221.236C12.5326 219.183 11.5071 216.43 11.5363 213.575C11.5654 210.718 12.6469 207.99 14.546 205.981C16.445 203.972 19.0084 202.846 21.6795 202.846C24.3506 202.846 26.9139 203.972 28.813 205.981C30.7121 207.99 31.7936 210.718 31.8228 213.575C31.8519 216.43 30.8264 219.183 28.9689 221.236C27.1113 223.289 24.5716 224.475 21.9011 224.537H21.4579ZM21.4579 207.836H21.2285C19.7862 207.87 18.4144 208.51 17.411 209.619C16.4076 210.727 15.8536 212.214 15.8692 213.757C15.8848 215.299 16.4688 216.772 17.4944 217.858C18.52 218.942 19.9044 219.551 21.3471 219.551C22.7897 219.551 24.1741 218.942 25.1997 217.858C26.2254 216.772 26.8093 215.299 26.825 213.757C26.8406 212.214 26.2866 210.727 25.2831 209.619C24.2797 208.51 22.9079 207.87 21.4656 207.836H21.4579Z" fill="#E7F6FF"/>
<path d="M14.2259 242.74C16.6566 242.628 18.542 240.43 18.4371 237.831C18.3323 235.232 16.2769 233.216 13.8462 233.328C11.4156 233.44 9.53021 235.638 9.63503 238.237C9.73989 240.836 11.7953 242.852 14.2259 242.74Z" fill="#E7F6FF"/>
<path d="M275.692 49.1673C273.271 49.1694 270.93 48.2452 269.092 46.5614C267.253 44.8775 266.039 42.5456 265.67 39.9875C265.3 37.4295 265.799 34.8144 267.076 32.6157C268.353 30.417 270.325 28.7799 272.633 28.0006C274.941 27.2214 277.434 27.3517 279.66 28.3677C281.886 29.3837 283.699 31.2185 284.77 33.5398C285.841 35.8612 286.099 38.5158 285.498 41.0231C284.897 43.5305 283.476 45.7249 281.493 47.2091C279.792 48.4813 277.767 49.1648 275.692 49.1673ZM275.661 32.4705C274.245 32.4689 272.883 33.0519 271.858 34.0979C270.834 35.1439 270.227 36.5722 270.163 38.0852C270.1 39.5981 270.584 41.079 271.517 42.2192C272.449 43.3592 273.757 44.0706 275.168 44.2049C276.578 44.3391 277.983 43.8864 279.089 42.9401C280.195 41.9943 280.917 40.6284 281.105 39.1273C281.292 37.6261 280.93 36.1055 280.095 34.8824C279.26 33.6593 278.016 32.8281 276.621 32.5619C276.304 32.5015 275.983 32.4709 275.661 32.4705Z" fill="#E7F6FF"/>
<path d="M255.01 48.5755C257.002 47.0817 257.484 44.1444 256.087 42.014C254.69 39.8842 251.943 39.3683 249.951 40.862C247.959 42.3558 247.477 45.2931 248.874 47.4234C250.271 49.5533 253.018 50.0693 255.01 48.5755Z" fill="#E7F6FF"/>
<path d="M500 105.045C500 100.474 498.301 96.0891 495.28 92.8566C492.255 89.6237 488.157 87.8077 483.88 87.8077C483.523 87.8077 483.169 87.8077 482.819 87.8451C482.842 87.4709 482.854 87.0926 482.854 86.7101C482.854 84.2605 482.364 81.8387 481.419 79.6069C480.474 77.3747 479.098 75.3837 477.376 73.7664C475.653 72.1491 473.631 70.9426 471.439 70.2275C469.25 69.512 466.94 69.3045 464.67 69.6184C462.395 69.9327 460.214 70.7609 458.262 72.0481C456.314 73.3357 454.642 75.0528 453.363 77.0845C452.084 79.1168 451.225 81.4171 450.84 83.8322C450.459 86.2478 450.56 88.7228 451.143 91.0922C449.195 89.5817 446.956 88.5565 444.588 88.0921C442.22 87.6277 439.786 87.7362 437.465 88.4093C435.14 89.082 432.99 90.3026 431.163 91.9815C429.339 93.6603 427.893 95.7544 426.921 98.1101C425.953 100.466 425.49 103.024 425.568 105.596C425.645 108.168 426.26 110.689 427.368 112.975C428.472 115.26 430.043 117.251 431.964 118.801C433.884 120.353 436.104 121.424 438.464 121.937C439.429 124.668 441.023 127.092 443.103 128.984C445.179 130.874 447.675 132.17 450.346 132.75C453.021 133.329 455.793 133.172 458.394 132.295C460.995 131.417 463.348 129.848 465.229 127.733C467.154 129.286 469.378 130.358 471.742 130.869C474.106 131.381 476.544 131.319 478.88 130.689C481.221 130.059 483.394 128.876 485.249 127.227C487.103 125.579 488.585 123.507 489.592 121.164C492.652 119.924 495.284 117.718 497.146 114.838C499.005 111.959 500 108.544 500 105.045Z" fill="white"/>
<path d="M74.4363 63.6113C74.4383 61.3467 74.023 59.1037 73.2143 57.0108C72.4052 54.9179 71.2186 53.0158 69.7217 51.4135C68.2252 49.8111 66.448 48.5398 64.4915 47.6725C62.5355 46.8048 60.4383 46.3579 58.3205 46.3575C57.9628 46.3575 57.609 46.3575 57.259 46.3949C57.2824 46.0207 57.294 45.6424 57.294 45.2599C57.2936 42.8102 56.8049 40.3884 55.8601 38.1565C54.9157 35.9245 53.537 33.9335 51.8162 32.3161C50.0953 30.6988 48.0716 29.4923 45.8803 28.7771C43.689 28.0618 41.3803 27.8543 39.1082 28.1683C36.8361 28.4823 34.6527 29.3106 32.7034 30.598C30.7542 31.8854 29.084 33.6023 27.8042 35.6343C26.5243 37.6663 25.6643 39.9667 25.2813 42.382C24.8983 44.7976 25.0013 47.2725 25.5833 49.6419C23.6351 48.1311 21.3952 47.1058 19.0281 46.6418C16.661 46.1774 14.2267 46.286 11.9039 46.9587C9.58104 47.6318 7.42859 48.8524 5.60453 50.5312C3.78045 52.21 2.33104 54.3042 1.36264 56.6599C0.394243 59.016 -0.0685579 61.5737 0.00820246 64.146C0.0849627 66.7178 0.699337 69.2389 1.80623 71.5239C2.91313 73.8093 4.48446 75.8004 6.40492 77.3512C8.32537 78.9019 10.5462 79.9737 12.9044 80.4868C13.8682 83.215 15.4635 85.6372 17.5411 87.5263C19.6187 89.4159 22.1106 90.7106 24.7836 91.2898C27.4565 91.8689 30.2232 91.713 32.8247 90.8374C35.4261 89.9618 37.7772 88.3944 39.6579 86.2824C41.5821 87.8357 43.8076 88.9075 46.1704 89.4189C48.5331 89.9307 50.9733 89.8691 53.3107 89.2384C55.6482 88.6081 57.824 87.4253 59.6774 85.7768C61.5308 84.1284 63.0149 82.0567 64.0203 79.7135C67.0786 78.4758 69.7128 76.2727 71.5732 73.3969C73.4336 70.5211 74.432 67.1082 74.4363 63.6113Z" fill="white"/>
<path d="M370.988 308.878H139.067V303.473H370.988C371.658 303.473 372.301 303.758 372.774 304.265C373.248 304.771 373.515 305.459 373.515 306.176C373.515 306.893 373.248 307.58 372.774 308.087C372.301 308.593 371.658 308.878 370.988 308.878Z" fill="#426572"/>
<path d="M128.694 308.878H114.514C113.844 308.878 113.201 308.593 112.727 308.087C112.253 307.58 111.987 306.893 111.987 306.176C111.987 305.459 112.253 304.771 112.727 304.265C113.201 303.758 113.844 303.473 114.514 303.473H128.694C129.364 303.473 130.007 303.758 130.481 304.265C130.955 304.771 131.221 305.459 131.221 306.176C131.221 306.893 130.955 307.58 130.481 308.087C130.007 308.593 129.364 308.878 128.694 308.878Z" fill="#426572"/>
<path d="M105.311 308.878H100.793C100.123 308.878 99.4803 308.593 99.0064 308.087C98.5324 307.58 98.2661 306.893 98.2661 306.176C98.2661 305.459 98.5324 304.771 99.0064 304.265C99.4803 303.758 100.123 303.473 100.793 303.473H105.311C105.982 303.473 106.624 303.758 107.098 304.265C107.572 304.771 107.838 305.459 107.838 306.176C107.838 306.893 107.572 307.58 107.098 308.087C106.624 308.593 105.982 308.878 105.311 308.878Z" fill="#426572"/>
<path d="M452.309 308.878H381.026V303.473H452.309C452.978 303.473 453.624 303.758 454.098 304.265C454.572 304.771 454.837 305.459 454.837 306.176C454.837 306.893 454.572 307.58 454.098 308.087C453.624 308.593 452.978 308.878 452.309 308.878Z" fill="#426572"/>
<path d="M87.8695 308.878H16.5825V303.473H87.8695C88.5398 303.473 89.1825 303.758 89.6564 304.265C90.1304 304.771 90.3967 305.459 90.3967 306.176C90.3967 306.893 90.1304 307.58 89.6564 308.087C89.1825 308.593 88.5398 308.878 87.8695 308.878Z" fill="#426572"/>
<path d="M110.459 97.9365H370.109C374.795 97.9365 379.29 99.9263 382.604 103.469C385.919 107.012 387.782 111.817 387.784 116.828V296.543H92.7839V116.828C92.7859 111.817 94.649 107.012 97.9636 103.469C101.278 99.9263 105.773 97.9365 110.459 97.9365Z" fill="#EBF0F9"/>
<path d="M377.531 111.718H104.207V278.685H377.531V111.718Z" fill="#637F91"/>
<path d="M102.158 278.374H378.694C378.694 279.699 378.203 280.971 377.329 281.91C376.454 282.85 375.268 283.381 374.028 283.388H106.843C105.599 283.388 104.407 282.86 103.527 281.919C102.648 280.979 102.154 279.704 102.154 278.374H102.158Z" fill="white"/>
<g opacity="0.5">
<path opacity="0.5" d="M185.883 111.094L145.016 279.624H124.436L165.303 111.094H185.883Z" fill="#A7BCD5"/>
<path opacity="0.5" d="M238.336 111.094L197.473 279.624H154.316L195.183 111.094H238.336Z" fill="#A7BCD5"/>
</g>
<path d="M390.117 299.037H90.4512V108.771C90.4554 105.237 91.77 101.85 94.1067 99.3504C96.4434 96.8517 99.6118 95.4461 102.916 95.4419H377.652C380.957 95.4461 384.125 96.8517 386.461 99.3504C388.798 101.85 390.113 105.237 390.117 108.771V299.037ZM95.1168 294.048H385.451V108.771C385.449 106.56 384.627 104.44 383.165 102.876C381.702 101.312 379.72 100.433 377.652 100.431H102.916C100.849 100.433 98.8656 101.312 97.4033 102.876C95.9414 104.44 95.1187 106.56 95.1168 108.771V294.048Z" fill="#426572"/>
<path d="M55.5793 290.593H432.9V291.919C432.9 296.22 431.302 300.344 428.46 303.385C425.614 306.425 421.757 308.134 417.737 308.134H70.7426C66.7213 308.134 62.8643 306.425 60.0206 303.385C57.1769 300.344 55.5793 296.22 55.5793 291.919V290.593Z" fill="#EBF0F9"/>
<path opacity="0.5" d="M430.968 299.05C430.14 301.356 428.674 303.339 426.769 304.738C424.864 306.136 422.605 306.884 420.295 306.882H65.8321C63.5226 306.882 61.2672 306.134 59.3632 304.735C57.4592 303.337 55.9966 301.355 55.1672 299.05H430.968Z" fill="#A7BCD5"/>
<path d="M415.976 310H68.9854C64.3466 309.994 59.8994 308.021 56.6195 304.514C53.3392 301.006 51.4943 296.251 51.4893 291.291V287.47H433.476V291.291C433.472 296.252 431.625 301.008 428.344 304.515C425.062 308.023 420.614 309.995 415.976 310ZM56.1977 292.459C56.4714 295.883 57.9368 299.073 60.3038 301.397C62.6712 303.721 65.7676 305.01 68.9815 305.011H415.976C419.191 305.01 422.286 303.721 424.654 301.397C427.022 299.073 428.488 295.883 428.76 292.459H56.1977Z" fill="#426572"/>
<path d="M379.277 280.24H101.283V109.223H379.277V280.24ZM105.949 275.251H374.611V114.212H105.949V275.251Z" fill="#426572"/>
<path d="M335.75 58.1195V277.746H149.432V58.1195C149.439 57.1296 149.81 56.1821 150.465 55.4819C151.12 54.7818 152.006 54.3852 152.932 54.3777H332.236C332.447 54.3777 332.658 54.3989 332.865 54.44C333.671 54.5993 334.4 55.0537 334.927 55.7251C335.453 56.3966 335.744 57.2435 335.75 58.1195Z" fill="white"/>
<path d="M152.364 72.5298H336.338V59.3171L332.819 54.3613H171.699H155.879L150.02 59.3171V72.5298H152.364Z" fill="#E2F2FF"/>
<path d="M338.67 280.241H147.687V58.1194C147.693 56.4676 148.309 54.8852 149.402 53.7169C150.494 52.5487 151.974 51.8897 153.519 51.8831H332.815C334.36 51.8897 335.84 52.5487 336.932 53.7169C338.024 54.8852 338.641 56.4676 338.647 58.1194L338.67 280.241ZM152.352 275.251H334.005V58.1194C333.997 57.7913 333.871 57.4787 333.654 57.2467C333.437 57.0147 333.145 56.8804 332.838 56.8721H153.534C153.227 56.8804 152.935 57.0147 152.718 57.2467C152.501 57.4787 152.375 57.7913 152.368 58.1194L152.352 275.251Z" fill="#426572"/>
<path d="M324.876 62.0613H160.98C159.685 62.0613 158.635 63.1834 158.635 64.5683C158.635 65.9527 159.685 67.0753 160.98 67.0753H324.876C326.17 67.0753 327.22 65.9527 327.22 64.5683C327.22 63.1834 326.17 62.0613 324.876 62.0613Z" fill="#CADCE8"/>
<path d="M210.774 96.0569H172.465V142.734H210.774V96.0569Z" fill="#E8837E"/>
<path d="M305.226 96.0569H214.39V142.734H305.226V96.0569Z" fill="#E8837E"/>
<path d="M305.226 147.901H262.337V194.578H305.226V147.901Z" fill="#DDE4ED"/>
<path d="M258.721 147.901H172.947V194.578H258.721V147.901Z" fill="#DDE4ED"/>
<path d="M305.467 199.746H172.947V246.423H305.467V199.746Z" fill="#DDE4ED"/>
<path d="M306.637 252.696H272.656V257.685H306.637V252.696Z" fill="#DDE4ED"/>
<path d="M121.003 265.852H65.3811C64.4651 265.859 63.5626 265.618 62.7567 265.153C61.5902 264.471 60.8438 263.353 60.8438 262.093L60.8749 180.331C60.8756 179.796 61.0098 179.271 61.2637 178.809C61.9713 177.495 63.5693 176.573 65.4122 176.573H121.034C122.978 176.573 124.615 177.579 125.268 178.984C125.466 179.4 125.57 179.86 125.572 180.327L125.544 262.093C125.544 263.981 123.838 265.556 121.633 265.814C121.424 265.84 121.213 265.852 121.003 265.852Z" fill="white"/>
<path d="M122.516 265.224L66.8742 265.211C65.9586 265.218 65.0558 264.978 64.2498 264.513C63.0834 263.831 62.3369 262.713 62.3369 261.453L62.368 179.691C62.3688 179.155 62.5029 178.63 62.7568 178.169C63.4644 176.855 65.0624 175.932 66.9053 175.932H67.6635L67.6518 256.439C67.6518 257.686 68.4061 258.817 69.5647 259.499C70.3707 259.964 71.2735 260.204 72.1892 260.197H127.057V261.445C127.057 263.332 125.35 264.908 123.146 265.166C122.937 265.198 122.726 265.217 122.516 265.224Z" fill="#D6DEE9"/>
<path d="M121.757 267.718H66.1314C64.82 267.726 63.5276 267.378 62.3756 266.708C60.4315 265.556 59.2651 263.594 59.2651 261.465L59.2962 179.703C59.3009 178.728 59.5462 177.771 60.0078 176.93C61.1742 174.789 63.507 173.454 66.1703 173.454H121.792C124.514 173.454 126.944 174.888 128.048 177.117L128.359 177.628V177.861C128.561 178.454 128.663 179.081 128.662 179.711L128.631 261.474C128.631 264.608 126.054 267.294 122.64 267.672C122.347 267.705 122.052 267.721 121.757 267.718ZM66.1586 178.422C65.1127 178.422 64.2962 178.917 64.0357 179.408C63.9848 179.491 63.9564 179.587 63.9541 179.686L63.923 261.449C63.923 261.723 64.2068 262.072 64.6306 262.326C65.0929 262.587 65.6084 262.722 66.1314 262.717H121.753C121.876 262.717 121.998 262.71 122.119 262.696C123.285 262.563 123.962 261.864 123.962 261.449L123.993 179.686C123.993 179.637 123.985 179.588 123.97 179.541L123.752 179.183C123.214 178.665 122.508 178.392 121.785 178.422H66.1625H66.1586Z" fill="#426572"/>
<path d="M115.342 211.952H77.6206V216.941H115.342V211.952Z" fill="#426572"/>
<path d="M115.342 201.542H77.6206V206.531H115.342V201.542Z" fill="#426572"/>
<path d="M115.342 223.748H77.6206V228.737H115.342V223.748Z" fill="#426572"/>
<path opacity="0.2" d="M416.796 118.076C419.514 112.621 421.182 106.64 421.703 100.486C422.224 94.3303 421.586 88.1265 419.829 82.239C418.072 76.3519 415.226 70.9009 411.466 66.2074C407.706 61.5144 403.107 57.6741 397.936 54.9131C392.765 52.152 387.13 50.5264 381.362 50.1323C375.594 49.7382 369.811 50.5834 364.354 52.6177C358.897 54.6524 353.876 57.8354 349.587 61.9784C345.299 66.1218 341.83 71.1412 339.386 76.7414C336.01 83.5203 334.265 91.0908 334.307 98.7706C334.349 106.451 336.178 113.999 339.629 120.735C343.079 127.47 348.043 133.182 354.073 137.355C360.102 141.528 367.008 144.031 374.168 144.638C372.919 144.954 371.65 145.21 370.362 145.407C377.139 146.452 384.052 145.763 390.533 143.395C397.01 141.027 402.873 137.049 407.636 131.787C411.446 127.853 414.553 123.206 416.796 118.076Z" fill="#606060"/>
<path d="M372.768 133.832C396.668 133.832 416.042 113.114 416.042 87.5582C416.042 62.0022 396.668 41.2847 372.768 41.2847C348.869 41.2847 329.495 62.0022 329.495 87.5582C329.495 113.114 348.869 133.832 372.768 133.832Z" fill="#A8EF9E"/>
<path d="M413.977 90.8648C413.977 97.4994 412.64 104.056 410.062 110.09C407.484 116.124 403.721 121.495 399.032 125.838C394.343 130.182 388.834 133.396 382.879 135.263C376.926 137.13 370.666 137.607 364.526 136.66C374.823 135.069 384.239 129.563 391.05 121.152C397.862 112.741 401.61 101.988 401.61 90.8627C401.61 79.7371 397.862 68.984 391.05 60.5733C384.239 52.1626 374.823 46.6571 364.526 45.0652C370.667 44.1181 376.927 44.5942 382.882 46.4613C388.837 48.3285 394.347 51.5427 399.036 55.8865C403.725 60.2303 407.488 65.6018 410.066 71.6369C412.648 77.672 413.981 84.2297 413.981 90.8648H413.977Z" fill="#A7E59C"/>
<path d="M371.738 138.527C362.718 138.527 353.9 135.666 346.4 130.308C338.9 124.949 333.055 117.332 329.603 108.422C326.151 99.5103 325.248 89.7047 327.008 80.2447C328.767 70.7846 333.111 62.0949 339.489 55.2744C345.867 48.4544 353.994 43.8096 362.84 41.9279C371.687 40.046 380.857 41.0118 389.191 44.703C397.523 48.3941 404.646 54.645 409.658 62.6649C414.669 70.6844 417.344 80.1133 417.344 89.7588C417.333 102.688 412.523 115.084 403.973 124.227C395.424 133.37 383.829 138.512 371.738 138.527ZM371.738 45.984C363.641 45.984 355.725 48.5517 348.992 53.362C342.26 58.1727 337.012 65.0097 333.914 73.0093C330.815 81.0088 330.004 89.8116 331.583 98.3038C333.163 106.796 337.062 114.597 342.788 120.719C348.514 126.842 355.809 131.012 363.751 132.701C371.692 134.39 379.924 133.523 387.405 130.209C394.887 126.896 401.279 121.285 405.777 114.085C410.276 106.886 412.679 98.4215 412.679 89.7629C412.667 78.1559 408.351 67.0274 400.676 58.82C392.998 50.6122 382.592 45.996 371.738 45.984Z" fill="#426572"/>
<path d="M393.596 70.8377C392.663 70.2797 391.563 70.1301 390.529 70.4198C389.495 70.7096 388.606 71.4168 388.048 72.3922L380.556 85.4885L368.585 106.393L368.25 106.979L354.429 95.1548L351.909 93.0016C350.257 91.588 347.764 91.1431 346.174 93.0016C344.821 94.5773 344.405 97.6202 346.174 99.1335L363.946 114.334L366.466 116.487C367.512 117.385 368.507 117.876 369.872 117.68C370.482 117.601 371.066 117.371 371.58 117.011C372.093 116.65 372.523 116.168 372.834 115.602L380.327 102.505L392.302 81.6053L395.066 76.7747C396.159 74.8372 395.505 71.927 393.596 70.8377Z" fill="white"/>
<defs>
<linearGradient id="paint0_linear_77_456" x1="0.513221" y1="154.325" x2="487.791" y2="154.325" gradientUnits="userSpaceOnUse">
<stop stop-color="#C5E9FA"/>
<stop offset="1" stop-color="#C4F4EA"/>
</linearGradient>
</defs>
</svg>
