<svg width="90" height="90" viewBox="0 0 90 90" fill="none" xmlns="http://www.w3.org/2000/svg">
<path d="M30 48.75L39.375 58.125L60 37.5" stroke="#F6FE9E" stroke-width="7.5" stroke-linecap="round" stroke-linejoin="round"/>
<path d="M78.75 45C78.75 49.4321 77.877 53.8208 76.1809 57.9156C74.4848 62.0103 71.9988 65.7309 68.8649 68.8649C65.7309 71.9988 62.0103 74.4848 57.9156 76.1809C53.8208 77.877 49.4321 78.75 45 78.75C40.5679 78.75 36.1792 77.877 32.0844 76.1809C27.9897 74.4848 24.2691 71.9988 21.1351 68.8649C18.0012 65.7309 15.5152 62.0103 13.8191 57.9156C12.123 53.8208 11.25 49.4321 11.25 45C11.25 36.0489 14.8058 27.4645 21.1351 21.1351C27.4645 14.8058 36.0489 11.25 45 11.25C53.9511 11.25 62.5355 14.8058 68.8649 21.1351C75.1942 27.4645 78.75 36.0489 78.75 45Z" stroke="#F6FE9E" stroke-width="7.5"/>
</svg>
